<svg xmlns="http://www.w3.org/2000/svg" width="64" height="64" viewBox="0 0 64 64">
<path d="M23.4645 6.46447C22.5268 5.52678 21.255 5 19.9289 5H18.0711C16.745 5 15.4732 5.52678 14.5355 6.46447L13.9711 7.02886C14.1173 7.00974 14.2652 7 14.4142 7H19.5858C20.4913 7 21.3597 7.35971 22 8C22.6403 8.64029 23.5087 9 24.4142 9H26L23.4645 6.46447Z"/>
<path fill-rule="evenodd" clip-rule="evenodd" d="M18.5858 9C19.4913 9 20.3597 9.35971 21 10C21.6403 10.6403 22.5087 11 23.4142 11H55C57.7614 11 60 13.2386 60 16V19H40.6612C38.2783 17.1211 35.2701 16 32 16C28.7299 16 25.7217 17.1211 23.3388 19H4V15.2426C4 12.8995 5.8995 11 8.24264 11H8.58579C9.49129 11 10.3597 10.6403 11 10C11.6403 9.35971 12.5087 9 13.4142 9H18.5858ZM54 17C55.1046 17 56 16.1046 56 15C56 13.8954 55.1046 13 54 13C53.2597 13 52.6134 13.4022 52.2676 14H50C49.4477 14 49 14.4477 49 15C49 15.5523 49.4477 16 50 16H52.2676C52.6134 16.5978 53.2597 17 54 17ZM8 13L6 17H8L10 13H8ZM12 13L10 17H12L14 13H12ZM16 13L14 17H16L18 13H16ZM20 13L18 17H20L22 13H20Z"/>
<path d="M21.2758 21H4V26.9289C4 28.255 4.52678 29.5268 5.46446 30.4645L10.5355 35.5355C11.4732 36.4732 12 37.745 12 39.0711V47C12 48.1046 12.8954 49 14 49H50C51.1046 49 52 48.1046 52 47V39.0711C52 37.745 52.5268 36.4732 53.4645 35.5355L58.5355 30.4645C59.4732 29.5268 60 28.255 60 26.9289V21H42.7242C44.7686 23.4335 46 26.573 46 30C46 37.732 39.732 44 32 44C24.268 44 18 37.732 18 30C18 26.573 19.2314 23.4335 21.2758 21Z"/>
<path d="M39.6149 39.2748C42.2923 37.074 44 33.7364 44 30C44 23.3726 38.6274 18 32 18C28.2636 18 24.926 19.7077 22.7252 22.3851C23.7757 22.1333 24.8723 22 26 22C33.732 22 40 28.268 40 36C40 37.1277 39.8667 38.2243 39.6149 39.2748Z"/>
<path d="M36.9395 40.9395C37.6208 39.4331 38 37.7608 38 36C38 29.3726 32.6274 24 26 24C24.2392 24 22.5669 24.3792 21.0605 25.0605C20.3792 26.5669 20 28.2392 20 30C20 36.6274 25.3726 42 32 42C33.7608 42 35.4331 41.6208 36.9395 40.9395Z"/>
<path d="M20 59V51H22V53H42V51H44V59H20Z"/>
<path d="M6 34L8.53553 36.5355C9.47322 37.4732 10 38.745 10 40.0711V47C7.79086 47 6 45.2091 6 43V34Z"/>
<path d="M58 43C58 45.2091 56.2091 47 54 47V40.0711C54 38.745 54.5268 37.4732 55.4645 36.5355L58 34V43Z"/>
</svg>
