<svg width="64" height="64" viewBox="0 0 64 64" xmlns="http://www.w3.org/2000/svg">
<path d="M22.2451 2.68142C21.1735 1.60483 19.72 1 18.2045 1H16.0812C14.5657 1 13.1122 1.60483 12.0406 2.68142L11.3956 3.32943C11.5626 3.30748 11.7317 3.2963 11.902 3.2963H17.8123C18.8472 3.2963 19.8397 3.7093 20.5714 4.44444C21.3032 5.17959 22.2957 5.59259 23.3305 5.59259H25.1429L22.2451 2.68142Z"/>
<path fill-rule="evenodd" clip-rule="evenodd" d="M16.6695 5.59259C17.7043 5.59259 18.6968 6.00559 19.4286 6.74074C20.1603 7.47589 21.1528 7.88889 22.1877 7.88889H58.2857C61.4416 7.88889 64 10.4591 64 13.6296V17.0741H41.8985C39.1752 14.9169 35.7372 13.6296 32 13.6296C28.2628 13.6296 24.8248 14.9169 22.1015 17.0741H0V12.7601C0 10.0698 2.17085 7.88889 4.84873 7.88889H5.2409C6.27576 7.88889 7.26824 7.47589 8 6.74074C8.73176 6.00559 9.72424 5.59259 10.7591 5.59259H16.6695ZM57.1429 14.7778C58.4052 14.7778 59.4286 13.7497 59.4286 12.4815C59.4286 11.2133 58.4052 10.1852 57.1429 10.1852C56.2968 10.1852 55.5581 10.647 55.1629 11.3333H52.5714C51.9403 11.3333 51.4286 11.8474 51.4286 12.4815C51.4286 13.1156 51.9403 13.6296 52.5714 13.6296H55.1629C55.5581 14.316 56.2968 14.7778 57.1429 14.7778ZM4.57143 10.1852L2.28571 14.7778H4.57143L6.85714 10.1852H4.57143ZM9.14286 10.1852L6.85714 14.7778H9.14286L11.4286 10.1852H9.14286ZM13.7143 10.1852L11.4286 14.7778H13.7143L16 10.1852H13.7143ZM18.2857 10.1852L16 14.7778H18.2857L20.5714 10.1852H18.2857Z"/>
<path d="M19.7437 19.3704H0V26.1777C0 27.7002 0.602038 29.1604 1.67367 30.237L7.46918 36.0593C8.54082 37.1359 9.14286 38.5961 9.14286 40.1186V49.2222C9.14286 50.4904 10.1662 51.5185 11.4286 51.5185H52.5714C53.8338 51.5185 54.8571 50.4904 54.8571 49.2222V40.1186C54.8571 38.5961 55.4592 37.1359 56.5308 36.0593L62.3263 30.237C63.398 29.1604 64 27.7002 64 26.1777V19.3704H44.2563C46.5927 22.1644 48 25.769 48 29.7037C48 38.5812 40.8366 45.7778 32 45.7778C23.1634 45.7778 16 38.5812 16 29.7037C16 25.769 17.4073 22.1644 19.7437 19.3704Z"/>
<path d="M40.7027 40.3525C43.7627 37.8257 45.7143 33.9936 45.7143 29.7037C45.7143 22.0944 39.5742 15.9259 32 15.9259C27.7298 15.9259 23.9155 17.8866 21.4003 20.9607C22.6008 20.6716 23.8541 20.5185 25.1429 20.5185C33.9794 20.5185 41.1429 27.7151 41.1429 36.5926C41.1429 37.8874 40.9905 39.1464 40.7027 40.3525Z"/>
<path d="M37.6451 42.2639C38.4237 40.5343 38.8571 38.6143 38.8571 36.5926C38.8571 28.9833 32.7171 22.8148 25.1429 22.8148C23.1305 22.8148 21.2194 23.2502 19.4977 24.0324C18.7191 25.7621 18.2857 27.682 18.2857 29.7037C18.2857 37.313 24.4258 43.4815 32 43.4815C34.0124 43.4815 35.9235 43.0461 37.6451 42.2639Z"/>
<path d="M18.2857 63V53.8148H20.5714V56.1111H43.4286V53.8148H45.7143V63H18.2857Z"/>
<path d="M2.28571 34.2963L5.18347 37.2075C6.2551 38.2841 6.85714 39.7442 6.85714 41.2668V49.2222C4.33241 49.2222 2.28571 47.166 2.28571 44.6296V34.2963Z"/>
<path d="M61.7143 44.6296C61.7143 47.166 59.6676 49.2222 57.1429 49.2222V41.2668C57.1429 39.7442 57.7449 38.2841 58.8165 37.2075L61.7143 34.2963V44.6296Z"/>
</svg>
