<svg width="64" height="64" viewBox="0 0 64 64" xmlns="http://www.w3.org/2000/svg">
<path fill-rule="evenodd" clip-rule="evenodd" d="M41.433 2.4859L43.9717 0L46.5103 2.4859L43.9717 4.9718L41.433 2.4859ZM25.9096 21.4155L42.0677 5.59328L40.7983 4.35033L21.9249 22.8316C23.2024 22.2005 24.5409 21.7285 25.9096 21.4155ZM19.8544 26.102C20.5554 26.7884 20.5554 27.9014 19.8544 28.5879C19.1534 29.2743 18.0168 29.2743 17.3157 28.5879C16.6147 27.9014 16.6147 26.7884 17.3157 26.102C18.0168 25.4155 19.1534 25.4155 19.8544 26.102ZM10.0065 40.1401L11.865 46.9317L4 45.3557L10.0065 40.1401ZM21.4305 56.2985L28.3662 58.1183L23.0399 64L21.4305 56.2985ZM49.049 57.1757L41.433 54.6898L46.5103 49.718L49.049 57.1757ZM38.5876 56.2985L31.6518 58.1183L36.9781 64L38.5876 56.2985ZM10.9691 57.1757L13.5078 49.718L18.5851 54.6898L10.9691 57.1757ZM48.1531 46.9317L50.0115 40.1401L56.0181 45.3558L48.1531 46.9317ZM58.5737 29.307V3.61516C58.5737 2.32523 57.6049 1.27954 56.4098 1.27954C55.2147 1.27954 54.2459 2.32523 54.2459 3.61516V29.307L58.5737 29.307ZM53.2926 38.6006C52.562 37.2204 52.6863 35.4985 53.6063 34.2572C53.7985 33.998 54.0137 33.7735 54.2459 33.5836V31.6426L58.5737 31.6426L58.5737 33.5836C58.8059 33.7735 59.0211 33.998 59.2133 34.2572C60.1333 35.4985 60.2576 37.2204 59.527 38.6006L56.9508 43.4667L56.9508 37.3254C57.2742 37.1235 57.4917 36.7461 57.4917 36.3138C57.4917 35.6689 57.0073 35.146 56.4098 35.146C55.8123 35.146 55.3279 35.6689 55.3279 36.3138C55.3279 36.7461 55.5454 37.1235 55.8688 37.3254V43.4667L53.2926 38.6006ZM21.1237 29.8308C22.4313 28.5504 22.5194 26.5282 21.3881 25.1477C24.981 22.9242 29.2741 22.2226 33.3088 23.043C33.1592 23.4414 33.0812 23.8644 33.0812 24.2874L31.2865 24.2878C30.2953 24.2879 29.4916 25.0752 29.4914 26.0462C29.4912 27.0172 30.2946 27.8042 31.2858 27.804L33.5608 27.8036C33.9352 28.4379 34.5062 28.9469 35.1923 29.2507C35.6327 30.205 36.4955 30.9321 37.5473 31.2034C37.84 31.2788 38.1473 31.319 38.4641 31.319C40.2633 31.3186 41.5738 29.5602 41.5738 29.5602L43.3193 29.5599C47.6628 35.7237 47.034 44.2334 41.433 49.718C35.1237 55.8962 24.8944 55.8962 18.5851 49.718C13.1429 44.3889 12.395 36.2038 16.3413 30.0897C17.751 31.1975 19.8162 31.1112 21.1237 29.8308ZM41.433 27.3449C42.1413 28.0385 42.7701 28.7804 43.3193 29.5599L45.6435 29.5595C46.6347 29.5593 47.4384 28.772 47.4386 27.801C47.4388 26.83 46.6354 26.043 45.6442 26.0432L43.8494 26.0436C43.8498 24.1016 42.243 22.5276 40.2606 22.528L39.7804 22.528C39.3019 21.7176 38.5026 21.1117 37.5525 20.877C37.2706 20.8074 36.9754 20.7704 36.6714 20.7705C34.969 20.7705 33.7815 21.7844 33.3088 23.043C36.2859 23.6483 39.1224 25.0823 41.433 27.3449Z"/>
</svg>
