<svg width="64" height="64" viewBox="0 0 64 64" xmlns="http://www.w3.org/2000/svg">
<path d="M33.4283 13.1424C35.7826 16.6739 37.3608 20.6648 38.0586 24.8514L38.154 25.4238C38.6849 28.6094 37.6447 31.8553 35.3611 34.1389L35.2841 34.2159C34.7449 33.442 33.9392 32.8678 33 32.626V12.5L33.4283 13.1424Z"/>
<path fill-rule="evenodd" clip-rule="evenodd" d="M41.0699 41.0371L35.9789 36.9131C35.9143 37.5426 35.7037 38.129 35.3816 38.6376C35.2513 38.8432 35.1028 39.0362 34.9383 39.2141C34.4248 39.7698 33.7556 40.1795 33 40.374V45.6357C33 46.9486 33.5311 48.2056 34.4725 49.1207C36.7013 51.2873 40.3631 50.8335 41.9958 48.1885L42.2235 47.8195C43.5995 45.5903 43.1055 42.6861 41.0699 41.0371ZM34.9383 41.7325C35.6997 41.3041 36.3581 40.7142 36.8672 40.0094L39.8278 42.6818C40.9372 43.6832 41.2099 45.3173 40.4857 46.6246L40.2196 47.1049C39.2892 48.7845 36.988 49.0616 35.6855 47.6508C35.2051 47.1304 34.9383 46.4481 34.9383 45.7399V41.7325Z"/>
<path d="M31.75 34C31.9709 34 32.15 34.1702 32.15 34.3801V34.7602C32.15 34.5503 32.3291 34.3801 32.55 34.3801C32.7709 34.3801 32.95 34.5503 32.95 34.7602V35.5204C32.95 35.3105 33.1291 35.1403 33.35 35.1403C33.5709 35.1403 33.75 35.3105 33.75 35.5204V37.5567C33.75 38.3214 33.0976 38.9414 32.2929 38.9414C32.2329 38.9414 32.1742 38.936 32.1173 38.9259C31.6417 39.1132 31.0426 38.9383 30.7921 38.4827L30.7883 38.4844L29.774 36.4175L29.7763 36.4164C29.7593 36.3743 29.75 36.3285 29.75 36.2806C29.75 36.0707 29.9291 35.9005 30.15 35.9005C30.3237 35.9005 30.4715 36.0057 30.5268 36.1527L30.55 36.2V34.7602C30.55 34.5503 30.7291 34.3801 30.95 34.3801C31.1709 34.3801 31.35 34.5503 31.35 34.7602V34.3801C31.35 34.1702 31.5291 34 31.75 34Z"/>
<path d="M12 15.5H16L12 23.5H8L12 15.5Z"/>
<path d="M20 15.5H24L20 23.5H16L20 15.5Z"/>
<path d="M24 23.5L28 15.5H31V23.5H24Z"/>
<path d="M7.99738 15.5052L4 23.5H0.00521566C0.0341533 20.0869 0.223643 18.2053 1.46447 16.9645C2.70497 15.724 4.58591 15.5343 7.99738 15.5052Z"/>
<path fill-rule="evenodd" clip-rule="evenodd" d="M0 25.5H31V32.626C29.2748 33.0701 28 34.6362 28 36.5C28 38.3638 29.2748 39.9299 31 40.374V47.5H10C5.28595 47.5 2.92893 47.5 1.46447 46.0355C0 44.5711 0 42.214 0 37.5V25.5ZM16 37.5L20 41.5V31.5L16 35.5V31.5L11 36.5L16 41.5V37.5Z"/>
<path d="M40 37.5H58.5901C59.8953 37.5 60.5778 35.9485 59.6959 34.9864L51 25.5L41.5 35L44 31.5L41 28.5L39.5 30C39.178 31.9317 38.1543 33.6766 36.6251 34.8999L36.5 35L40 37.5Z"/>
<path d="M58 24.2688C57.7373 24.3876 57.4457 24.4538 57.1387 24.4538C55.9831 24.4538 55.0462 23.5169 55.0462 22.3613C55.0462 22.0543 55.1124 21.7627 55.2312 21.5C54.5052 21.8283 54 22.5589 54 23.4075C54 24.5632 54.9368 25.5 56.0925 25.5C56.9411 25.5 57.6717 24.9948 58 24.2688Z"/>
<path d="M4 48.5C4 49.6046 4.89543 50.5 6 50.5V49.5H7V50.5H9V49.5H10V50.5H12V49.5H13V50.5H15V49.5H16V50.5H18V49.5H19V50.5H21V49.5H22V50.5H24V49.5H25V50.5H27V49.5H28V50.5H30V49L30.5 48.5H7C5.5 48.5 4 48.25 4 48.25V48.5Z"/>
<path d="M31 49.5L32 48.5L33 49.5V51.5H31V49.5Z"/>
<path fill-rule="evenodd" clip-rule="evenodd" d="M60 18.4997V16.4992C60 16.0277 60 15.7919 60.1464 15.6454C60.2643 15.5275 60.4401 15.5045 60.75 15.5V16.4992C60.75 16.735 60.75 16.8528 60.8232 16.9261C60.8964 16.9993 61.0143 16.9993 61.25 16.9993H62.5C62.7357 16.9993 62.8536 16.9993 62.9268 16.9261C63 16.8528 63 16.735 63 16.4992V15.5888C63.0245 15.5999 63.0485 15.612 63.072 15.6251C63.194 15.693 63.296 15.795 63.4998 15.9989C63.7038 16.2029 63.8059 16.305 63.8739 16.4272C63.9112 16.4943 63.9407 16.5655 63.9617 16.6393C64 16.7737 64 16.918 64 17.2065V18.4997C64 18.9713 64 19.207 63.8536 19.3535C63.7071 19.5 63.4714 19.5 63 19.5H61C60.5286 19.5 60.2929 19.5 60.1464 19.3535C60 19.207 60 18.9713 60 18.4997ZM60.5732 17.8228C60.5 17.896 60.5 18.0139 60.5 18.2497V18.7498C60.5 18.9856 60.5 19.1034 60.5732 19.1767C60.6464 19.2499 60.7643 19.2499 61 19.2499H63C63.2357 19.2499 63.3536 19.2499 63.4268 19.1767C63.5 19.1034 63.5 18.9856 63.5 18.7498V18.2497C63.5 18.0139 63.5 17.896 63.4268 17.8228C63.3536 17.7495 63.2357 17.7495 63 17.7495H61C60.7643 17.7495 60.6464 17.7495 60.5732 17.8228Z"/>
<path d="M62.2866 15.7856C62.25 15.8222 62.25 15.8812 62.25 15.999V16.4992C62.25 16.6171 62.25 16.676 62.2866 16.7126C62.3232 16.7493 62.3821 16.7493 62.5 16.7493C62.6179 16.7493 62.6768 16.7493 62.7134 16.7126C62.75 16.676 62.75 16.6171 62.75 16.4992V15.999C62.75 15.8812 62.75 15.8222 62.7134 15.7856C62.6768 15.749 62.6179 15.749 62.5 15.749C62.3821 15.749 62.3232 15.749 62.2866 15.7856Z"/>
<path d="M56.5113 51.5C56.4016 51.5 56.3252 51.4875 56.2821 51.4624C56.2351 51.4415 56.1822 51.3955 56.1234 51.3245C56.0411 51.2116 56 51.1259 56 51.0674C56 51.0256 56.0255 51.0047 56.0764 51.0047C56.1077 51.0047 56.1646 51.0172 56.2468 51.0423C56.3957 51.0883 56.525 51.1113 56.6347 51.1113C56.8307 51.1113 56.9893 51.0695 57.1108 50.9859C57.2323 50.9023 57.3302 50.756 57.4047 50.547C57.483 50.338 57.5496 50.035 57.6045 49.6379L58.0335 46.5909H57.7573C57.6672 46.5909 57.5908 46.6055 57.5281 46.6348C57.4654 46.6641 57.4262 46.6787 57.4105 46.6787C57.3753 46.6787 57.3576 46.6599 57.3576 46.6223C57.3576 46.5805 57.3674 46.5387 57.387 46.4969C57.4341 46.3798 57.5046 46.2816 57.5986 46.2022C57.6966 46.1186 57.7984 46.0768 57.9042 46.0768H58.1099L58.1217 45.964C58.2627 45.0695 58.5233 44.4174 58.9034 44.0078C59.0405 43.8532 59.1718 43.7466 59.2971 43.6881C59.4264 43.6296 59.5675 43.5878 59.7203 43.5627C59.8418 43.5418 59.9201 43.5272 59.9554 43.5188C59.9946 43.5063 60.02 43.5 60.0318 43.5C60.0671 43.5 60.0847 43.523 60.0847 43.569C60.0847 43.6066 60.069 43.6526 60.0377 43.7069C60.0103 43.7571 59.975 43.8051 59.9319 43.8511C59.8927 43.8929 59.8516 43.9201 59.8085 43.9326C59.7654 43.941 59.7105 43.9451 59.6439 43.9451C59.4872 43.9451 59.3559 44.0099 59.2501 44.1395C59.1404 44.2691 59.0425 44.4801 58.9563 44.7727C58.874 45.0611 58.7937 45.4582 58.7153 45.964L58.6977 46.0768H58.9386C59.0562 46.0768 59.1483 46.0622 59.2149 46.0329C59.2815 46.0037 59.3226 45.989 59.3383 45.989C59.3775 45.989 59.3971 46.0099 59.3971 46.0517C59.3971 46.0852 59.3892 46.1249 59.3736 46.1708C59.3344 46.2753 59.2638 46.3715 59.162 46.4592C59.064 46.547 58.9621 46.5909 58.8563 46.5909H58.6271L58.3098 48.8103C58.1805 49.7341 57.9689 50.4133 57.675 50.848C57.3851 51.2827 56.9972 51.5 56.5113 51.5Z"/>
<path d="M59.4316 49.0611C59.2436 49.0611 59.1025 48.9943 59.0085 48.8605C58.9928 48.8312 59.0614 48.7205 59.2142 48.5282L59.2965 48.4216C59.3317 48.3798 59.3611 48.3589 59.3846 48.3589C59.4042 48.3589 59.4199 48.3694 59.4316 48.3903C59.4708 48.4321 59.5022 48.4634 59.5257 48.4843C59.5531 48.501 59.5884 48.5094 59.6315 48.5094C59.702 48.5094 59.7686 48.4739 59.8313 48.4028C59.894 48.3276 59.9782 48.198 60.084 48.0141L60.3132 47.6129L60.1016 46.8354C60.0742 46.7351 60.0468 46.6661 60.0194 46.6285C59.9958 46.5909 59.9665 46.5721 59.9312 46.5721C59.8881 46.5721 59.8509 46.5951 59.8195 46.6411C59.7921 46.687 59.7568 46.7623 59.7137 46.8668C59.6902 46.9253 59.6706 46.965 59.655 46.9859C59.6393 47.0068 59.6197 47.0172 59.5962 47.0172C59.5531 47.0172 59.5315 46.9838 59.5315 46.9169C59.5315 46.8124 59.557 46.6891 59.6079 46.547C59.6628 46.4007 59.7392 46.2753 59.8372 46.1708C59.9351 46.0664 60.0468 46.0141 60.1722 46.0141C60.2936 46.0141 60.3916 46.0789 60.466 46.2085C60.5444 46.3339 60.6286 46.5658 60.7188 46.9044L60.7834 46.8041C60.9597 46.5324 61.1106 46.3339 61.236 46.2085C61.3653 46.0789 61.4965 46.0141 61.6297 46.0141C61.6924 46.0141 61.7551 46.0287 61.8178 46.058C61.8805 46.0831 61.9353 46.1144 61.9824 46.152C61.9941 46.1646 62 46.175 62 46.1834C62 46.2043 61.9843 46.2377 61.953 46.2837C61.8942 46.3757 61.8217 46.4697 61.7355 46.5658C61.6532 46.662 61.6003 46.71 61.5768 46.71C61.5729 46.71 61.5592 46.7017 61.5357 46.685C61.5161 46.6641 61.4867 46.6536 61.4475 46.6536C61.3809 46.6536 61.3084 46.6975 61.2301 46.7853C61.1556 46.8689 61.044 47.0277 60.8951 47.2618L60.8304 47.3746C60.9049 47.7633 60.995 48.0747 61.1008 48.3088C61.1478 48.4384 61.2027 48.5031 61.2653 48.5031C61.3045 48.5031 61.3378 48.4822 61.3653 48.4404C61.3966 48.3945 61.4358 48.3192 61.4828 48.2147C61.5102 48.1604 61.5318 48.1228 61.5475 48.1019C61.5631 48.0768 61.5827 48.0643 61.6062 48.0643C61.6297 48.0643 61.6454 48.0726 61.6532 48.0893C61.6611 48.1019 61.665 48.1311 61.665 48.1771C61.665 48.29 61.6356 48.4174 61.5768 48.5596C61.5181 48.6975 61.4397 48.8166 61.3417 48.9169C61.2477 49.0131 61.1478 49.0611 61.042 49.0611C60.9362 49.0611 60.8402 49.0026 60.754 48.8856C60.6717 48.7685 60.5797 48.5512 60.4778 48.2335L60.4425 48.1207L60.4073 48.1834C60.2309 48.4927 60.0664 48.7163 59.9136 48.8542C59.7608 48.9922 59.6001 49.0611 59.4316 49.0611Z"/>
<path d="M59 16.5C59 16.1492 59 15.8637 59.0151 15.6284C57.7229 15.5 56.094 15.5 54 15.5H37.2206C37.495 16.1611 37.7549 16.8279 38 17.5H52C55.3466 17.5 57.5052 17.5 59 18.024V16.5Z"/>
<path d="M63 20.5C63.3508 20.5 63.6363 20.5 63.8716 20.4849C64 21.7771 64 23.406 64 25.5V37.5C64 41.8368 64 44.1787 62.8598 45.666C62.7976 45.5585 62.7342 45.4916 62.715 45.4713L62.7119 45.4681L62.663 45.4159L62.6071 45.3712C62.4822 45.2713 62.3485 45.1958 62.2137 45.1395C62.0391 45.0621 61.8421 45.0141 61.6297 45.0141C61.3383 45.0141 61.0882 45.1014 60.8818 45.2243C60.6892 45.0972 60.4523 45.0141 60.1722 45.0141C60.0855 45.0141 60.0018 45.0217 59.9213 45.036C59.9344 44.9924 59.947 44.9544 59.9589 44.9215L59.977 44.9184L59.9989 44.9143L60.0438 44.9056L60.0878 44.8928C60.3445 44.8181 60.533 44.6721 60.6614 44.535C60.7539 44.4364 60.8387 44.324 60.9094 44.1969C60.9771 44.0779 61.0847 43.8548 61.0847 43.569C61.0847 43.4463 61.066 43.1708 60.865 42.9086C60.6254 42.5963 60.2851 42.5 60.0318 42.5C59.9004 42.5 59.7927 42.5268 59.7674 42.533L59.7649 42.5337C59.7527 42.5367 59.7409 42.5398 59.7294 42.5429L59.7078 42.549L59.6867 42.553C59.6545 42.559 59.6108 42.5668 59.5541 42.5766C59.3242 42.6147 59.0995 42.6799 58.8848 42.777L58.8742 42.7819C58.5832 42.9177 58.3485 43.1278 58.1625 43.3361C57.7052 43.833 57.4188 44.4954 57.2439 45.2414C57.1357 45.2982 57.0379 45.3663 56.9515 45.4398C56.7368 45.6217 56.5746 45.8469 56.4683 46.1016C56.4006 46.2554 56.3577 46.4312 56.3577 46.6223C56.3577 46.7797 56.3933 47.0839 56.6413 47.3485C56.691 47.4015 56.743 47.4464 56.7959 47.4842C55.9685 47.5 55.0418 47.5 54 47.5H44.8293C45.4098 44.8709 45.4957 42.0476 43.2978 40.2687L42.3481 39.5H57C59.357 39.5 60.5355 39.5 61.2678 38.7678C62 38.0355 62 36.857 62 34.5V27.5C62 24.1534 62 21.9948 61.476 20.5H63Z"/>
<path d="M55.25 49.5L53.25 51.5L55.75 50L56.75 50.5L56.25 49.5L56.75 48.5L55.75 49L54.75 48.5L55.25 49.5Z"/>
<path d="M59.5 51H59L59.5 50.5V50L60 50.5H60.5L60 51V51.5L59.5 51Z"/>
<path d="M41.8066 51.2117L39.5 51.5H41.8922C42.9495 51.5 43.9923 51.2538 44.938 50.781C45.9213 50.2893 47.0787 50.2893 48.062 50.781L48.2331 50.8665C49.6102 51.5551 51.2643 51.3631 52.4471 50.3775L52.9321 49.9732C53.2371 49.7191 53.258 49.258 52.9773 48.9773C52.7137 48.7137 52.2863 48.7137 52.0227 48.9773L51.9407 49.0593C51.0633 49.9367 49.7541 50.2203 48.5923 49.7846L48.2722 49.6646C47.1595 49.2473 45.9112 49.3925 44.9224 50.0517C43.9886 50.6743 42.9202 51.0725 41.8066 51.2117Z"/>
<path d="M22 14C22 14.1712 21.9828 14.3384 21.95 14.5H31V13.5H21.95C21.9828 13.6616 22 13.8288 22 14Z"/>
<path d="M8.5 14.5H17.05C17.0172 14.3384 17 14.1712 17 14C17 13.8288 17.0172 13.6616 17.05 13.5H8.5C8.22386 13.5 8 13.7239 8 14C8 14.2761 8.22386 14.5 8.5 14.5Z"/>
<path d="M20.3662 14.5C20.4513 14.3529 20.5 14.1821 20.5 14C20.5 13.4477 20.0523 13 19.5 13C18.9477 13 18.5 13.4477 18.5 14C18.5 14.1821 18.5487 14.3529 18.6338 14.5H20.3662Z"/>
<path d="M36 14L37.5 12.5L39 14L38.5 14.5H38L38.5 14L37.5 13V14.5H36.5L36 14Z"/>
</svg>
