<svg width="64" height="64" viewBox="0 0 64 64" xmlns="http://www.w3.org/2000/svg">
<path d="M35.2847 4.87603H34.1881V7.06139H33.0915V8.15407H30.8982V9.24675H33.0915V10.3394H34.1881V12.5248H35.2847V10.3394H36.3813V9.24675H38.5745V8.15407H36.3813V7.06139H35.2847V4.87603Z"/>
<path d="M5.42514e-08 19.2975C1.13722 19.1356 2.03076 18.2453 2.19322 17.1121C2.35568 18.2453 3.24921 19.1356 4.38643 19.2975C3.24921 19.4594 2.35568 20.3497 2.19322 21.4829C2.03076 20.3497 1.13722 19.4594 5.42514e-08 19.2975Z"/>
<path d="M7.52898 52.9813C8.61424 52.7651 9.46255 51.9198 9.67961 50.8384L9.86947 49.8925L10.0593 50.8384C10.2764 51.9198 11.1247 52.7651 12.21 52.9813L13.1593 53.1705L12.3835 53.3251C11.2128 53.5584 10.3282 54.5198 10.1964 55.7021L9.86947 58.6339L9.54254 55.7021C9.4107 54.5198 8.52614 53.5584 7.35545 53.3251L6.57965 53.1705L7.52898 52.9813Z"/>
<path d="M61.5067 44.3208H60.41V45.4135H59.3134V46.5061H60.41V47.5988H61.5067V46.5061H62.6033V45.4135H61.5067V44.3208Z"/>
<path fill-rule="evenodd" clip-rule="evenodd" d="M32 22.5758C33.0112 19.9308 33.5168 18.6083 34.1589 17.4048C36.1031 13.7601 39.0435 10.7386 42.6396 8.68996C43.8271 8.01346 45.1381 7.46916 47.7602 6.38054L52.3341 4.48159C53.0027 4.20399 53.337 4.06519 53.6031 4.02496C54.7222 3.85576 55.7867 4.56287 56.0603 5.65722C56.1254 5.91742 56.1254 6.27831 56.1254 7.00008C56.1254 8.99966 56.1254 9.99945 56.185 10.9845C56.4258 14.9667 57.3941 18.8717 59.0424 22.5074C59.4501 23.4067 59.9174 24.2915 60.8521 26.0609L61.2261 26.7691C62.6534 29.4711 63.367 30.8222 63.6873 32.1298C64.5003 35.4495 63.7079 38.957 61.5457 41.6093C60.6941 42.6541 59.4683 43.5702 57.0167 45.4023L51.7389 49.3464C42.235 56.4488 37.483 60 32 60C26.517 60 21.765 56.4488 12.2611 49.3464L6.98334 45.4023C4.53172 43.5702 3.30591 42.6541 2.45425 41.6093C0.292096 38.957 -0.500281 35.4495 0.312739 32.1298C0.632978 30.8222 1.34663 29.4711 2.77392 26.769L3.14794 26.0609C4.08254 24.2915 4.5499 23.4067 4.9576 22.5074C6.60585 18.8717 7.57421 14.9667 7.81505 10.9845C7.87462 9.99945 7.87462 8.99966 7.87462 7.00008C7.87462 6.27831 7.87462 5.91742 7.93969 5.65722C8.21335 4.56287 9.27782 3.85576 10.3969 4.02496C10.663 4.06519 10.9973 4.20399 11.6659 4.4816L16.2398 6.38056C18.8618 7.46915 20.1729 8.01348 21.3604 8.68996C24.9565 10.7386 27.8969 13.7601 29.8411 17.4048C30.4831 18.6083 30.9888 19.9308 32 22.5758ZM9.25987 24.071L13.2147 22.1007C13.6026 21.9074 13.7966 21.8107 13.9696 21.7081C15.5074 20.7958 16.5015 19.193 16.6327 17.4145C16.6475 17.2144 16.6475 16.9983 16.6475 16.5661C16.6475 16.5107 16.6475 16.483 16.6502 16.464C16.6753 16.2863 16.8626 16.1806 17.0285 16.2506C17.0462 16.2581 17.0701 16.2723 17.1177 16.3008L25.7329 21.4514C26.4822 21.8993 26.8568 22.1233 27.0081 21.9725C27.1595 21.8217 26.9347 21.4484 26.4852 20.7018L25.3958 18.8928C23.5129 15.7658 22.5715 14.2024 21.3322 12.8995C20.8402 12.3823 20.315 11.8976 19.7598 11.4486C18.361 10.3173 16.7243 9.50187 13.4509 7.87105C12.3683 7.33169 11.827 7.06201 11.6912 7.16432C11.6424 7.20113 11.6073 7.25318 11.5916 7.31216C11.548 7.47609 12.0035 7.87319 12.9144 8.66738L17.4907 12.6573C17.9482 13.0562 18.177 13.2557 18.1588 13.3997C18.1512 13.4605 18.1233 13.5169 18.0795 13.56C17.9759 13.662 17.6778 13.6026 17.0816 13.4838C15.5633 13.1812 14.8042 13.0299 14.1357 13.238C13.8374 13.3309 13.5572 13.4739 13.3073 13.6608C12.7472 14.0798 12.4269 14.782 11.7861 16.1866L8.5155 23.3562C8.24842 23.9417 8.11488 24.2344 8.25441 24.3684C8.39393 24.5024 8.68259 24.3586 9.25987 24.071ZM54.7401 24.071L50.7853 22.1007C50.3974 21.9074 50.2034 21.8107 50.0304 21.7081C48.4926 20.7958 47.4985 19.193 47.3673 17.4145C47.3525 17.2144 47.3525 16.9983 47.3525 16.5661C47.3525 16.5107 47.3525 16.483 47.3498 16.464C47.3247 16.2863 47.1373 16.1806 46.9715 16.2506C46.9538 16.2581 46.9299 16.2723 46.8823 16.3008L38.2671 21.4514C37.5178 21.8993 37.1432 22.1233 36.9919 21.9725C36.8405 21.8217 37.0653 21.4484 37.5148 20.7018L38.6042 18.8928C40.4871 15.7658 41.4285 14.2024 42.6678 12.8995C43.1598 12.3823 43.685 11.8976 44.2402 11.4486C45.639 10.3173 47.2757 9.50188 50.5491 7.87106C51.6317 7.3317 52.173 7.06201 52.3088 7.16432C52.3576 7.20113 52.3927 7.25318 52.4084 7.31216C52.452 7.47609 51.9965 7.87319 51.0856 8.66738L46.5093 12.6573C46.0518 13.0562 45.823 13.2557 45.8412 13.3997C45.8488 13.4605 45.8767 13.5169 45.9205 13.56C46.0241 13.662 46.3222 13.6026 46.9183 13.4838C48.4367 13.1812 49.1958 13.0299 49.8643 13.238C50.1626 13.3309 50.4428 13.4739 50.6927 13.6608C51.2528 14.0798 51.5731 14.782 52.2139 16.1866L55.4845 23.3562C55.7516 23.9417 55.8851 24.2344 55.7456 24.3684C55.6061 24.5024 55.3174 24.3586 54.7401 24.071ZM11.1644 26.9465H13.3577V28.0392H11.1644V26.9465ZM16.6475 30.2245H13.3577V28.0392H16.6475V30.2245ZM21.0339 33.5025H16.6475V30.2245H21.0339V33.5025ZM21.0339 37.8733V33.5025H26.517V37.8733H21.0339ZM16.6475 41.1513V37.8733H21.0339V41.1513H16.6475ZM13.3577 43.3367V41.1513H16.6475V43.3367H13.3577ZM13.3577 43.3367V44.4293H11.1644V43.3367H13.3577ZM44.0627 35.6879L55.0288 26.9465L45.1593 31.3172L47.3525 28.0392L35.2898 35.6879L47.3525 43.3367L45.1593 40.0586L55.0288 44.4293L44.0627 35.6879ZM22.1305 44.4664C22.1305 44.2754 22.4012 44.2358 22.4563 44.4188L22.8705 45.7944C24.1502 50.0448 30.1696 50.1034 31.5325 45.8787L32 44.4293L32.4675 45.8787C33.8304 50.1034 39.8498 50.0448 41.1295 45.7944L41.5437 44.4188C41.5987 44.2358 41.8695 44.2754 41.8695 44.4664C41.8695 45.1671 41.7766 45.8647 41.5933 46.5411L41.1293 48.2537L40.718 50.4391L39.8956 49.8927C37.9973 50.5933 35.8993 50.5269 34.0495 49.7077L32 48.8L29.9505 49.7077C28.1007 50.5269 26.0027 50.5933 24.1044 49.8927L23.282 50.4391L22.8707 48.2537L22.4067 46.5411C22.2234 45.8647 22.1305 45.1671 22.1305 44.4664Z"/>
</svg>
