<svg width="64" height="64" viewBox="0 0 64 64" xmlns="http://www.w3.org/2000/svg">
<path d="M35.2847 4.39168H34.1881V6.61606H33.0915V7.72825H30.8982V8.84044H33.0915V9.95263H34.1881V12.177H35.2847V9.95263H36.3813V8.84044H38.5745V7.72825H36.3813V6.61606H35.2847V4.39168Z"/>
<path d="M5.42514e-08 19.0707C1.13722 18.9059 2.03076 17.9997 2.19322 16.8463C2.35568 17.9997 3.24921 18.9059 4.38643 19.0707C3.24921 19.2354 2.35568 20.1417 2.19322 21.295C2.03076 20.1417 1.13722 19.2354 5.42514e-08 19.0707Z"/>
<path d="M7.52898 53.356C8.61424 53.1359 9.46255 52.2755 9.67961 51.1748L9.86947 50.212L10.0593 51.1748C10.2764 52.2755 11.1247 53.1359 12.21 53.356L13.1593 53.5486L12.3835 53.7059C11.2128 53.9434 10.3282 54.9219 10.1964 56.1254L9.86947 59.1095L9.54254 56.1254C9.4107 54.9219 8.52614 53.9434 7.35545 53.7059L6.57965 53.5486L7.52898 53.356Z"/>
<path d="M61.5067 44.5408H60.41V45.653H59.3134V46.7652H60.41V47.8774H61.5067V46.7652H62.6033V45.653H61.5067V44.5408Z"/>
<path fill-rule="evenodd" clip-rule="evenodd" d="M32 22.4075C33.0112 19.7153 33.5168 18.3692 34.1589 17.1441C36.1031 13.4344 39.0435 10.3589 42.6396 8.27371C43.8271 7.58513 45.1381 7.03111 47.7602 5.92305L52.3341 3.99019C53.0027 3.70763 53.337 3.56636 53.6031 3.52541C54.7222 3.35318 55.7867 4.07292 56.0603 5.18681C56.1254 5.45166 56.1254 5.81899 56.1254 6.55366C56.1254 8.58894 56.1254 9.60659 56.185 10.6092C56.4258 14.6625 57.3941 18.6372 59.0424 22.3379C59.4501 23.2533 59.9174 24.1538 60.8521 25.9549L61.2261 26.6757C62.6534 29.4259 63.367 30.8012 63.6873 32.1321C64.5003 35.5111 63.7079 39.0812 61.5457 41.7809C60.6941 42.8443 59.4683 43.7768 57.0167 45.6416L51.7389 49.6561C42.235 56.8854 37.483 60.5 32 60.5C26.517 60.5 21.765 56.8854 12.2611 49.6561L6.98334 45.6416C4.53172 43.7768 3.30591 42.8443 2.45425 41.7809C0.292096 39.0812 -0.500281 35.5111 0.312739 32.1321C0.632978 30.8012 1.34663 29.4259 2.77392 26.6756L3.14794 25.9548C4.08254 24.1539 4.5499 23.2532 4.9576 22.3379C6.60585 18.6372 7.57421 14.6625 7.81505 10.6092C7.87462 9.60659 7.87462 8.58894 7.87462 6.55366C7.87462 5.81899 7.87462 5.45166 7.93969 5.18681C8.21335 4.07292 9.27782 3.35318 10.3969 3.52541C10.663 3.56636 10.9973 3.70764 11.6659 3.9902L16.2398 5.92307C18.8618 7.03109 20.1729 7.58514 21.3604 8.27371C24.9565 10.3589 27.8969 13.4344 29.8411 17.1441C30.4831 18.3692 30.9888 19.7153 32 22.4075ZM9.25987 23.9294L13.2147 21.9239C13.6026 21.7272 13.7966 21.6288 13.9696 21.5243C15.5074 20.5957 16.5015 18.9643 16.6327 17.154C16.6475 16.9504 16.6475 16.7304 16.6475 16.2905C16.6475 16.2341 16.6475 16.2059 16.6502 16.1866C16.6753 16.0057 16.8626 15.8982 17.0285 15.9694C17.0462 15.977 17.0701 15.9915 17.1177 16.0205L25.7329 21.263C26.4822 21.719 26.8568 21.9469 27.0081 21.7934C27.1595 21.6399 26.9347 21.26 26.4852 20.5001L25.3958 18.6587C23.5129 15.4759 22.5715 13.8845 21.3322 12.5584C20.8402 12.032 20.315 11.5387 19.7598 11.0816C18.361 9.93011 16.7243 9.10012 13.4509 7.44018C12.3683 6.89119 11.827 6.61669 11.6912 6.72082C11.6424 6.75829 11.6073 6.81127 11.5916 6.87131C11.548 7.03816 12.0035 7.44235 12.9144 8.25073L17.4907 12.3119C17.9482 12.7179 18.177 12.921 18.1588 13.0676C18.1512 13.1294 18.1233 13.1868 18.0795 13.2307C17.9759 13.3345 17.6778 13.2741 17.0816 13.1531C15.5633 12.8452 14.8042 12.6912 14.1357 12.903C13.8374 12.9975 13.5572 13.143 13.3073 13.3333C12.7472 13.7598 12.4269 14.4746 11.7861 15.9042L8.5155 23.2019C8.24842 23.7978 8.11488 24.0958 8.25441 24.2321C8.39393 24.3685 8.68259 24.2221 9.25987 23.9294ZM54.7401 23.9294L50.7853 21.9239C50.3974 21.7272 50.2034 21.6288 50.0304 21.5243C48.4926 20.5957 47.4985 18.9643 47.3673 17.154C47.3525 16.9504 47.3525 16.7304 47.3525 16.2905C47.3525 16.2341 47.3525 16.2059 47.3498 16.1866C47.3247 16.0057 47.1373 15.8982 46.9715 15.9694C46.9538 15.977 46.9299 15.9915 46.8823 16.0205L38.2671 21.263C37.5178 21.719 37.1432 21.9469 36.9919 21.7934C36.8405 21.6399 37.0653 21.26 37.5148 20.5001L38.6042 18.6587C40.4871 15.4759 41.4285 13.8845 42.6678 12.5584C43.1598 12.032 43.685 11.5387 44.2402 11.0816C45.639 9.93011 47.2757 9.10013 50.5491 7.44019C51.6317 6.89119 52.173 6.61669 52.3088 6.72082C52.3576 6.75829 52.3927 6.81127 52.4084 6.87131C52.452 7.03816 51.9965 7.44235 51.0856 8.25073L46.5093 12.3119C46.0518 12.7179 45.823 12.921 45.8412 13.0676C45.8488 13.1294 45.8767 13.1868 45.9205 13.2307C46.0241 13.3345 46.3222 13.2741 46.9183 13.1531C48.4367 12.8452 49.1958 12.6912 49.8643 12.903C50.1626 12.9975 50.4428 13.143 50.6927 13.3333C51.2528 13.7598 51.5731 14.4746 52.2139 15.9042L55.4845 23.2019C55.7516 23.7978 55.8851 24.0958 55.7456 24.2321C55.6061 24.3685 55.3174 24.2221 54.7401 23.9294ZM11.1644 26.8562H13.3577V27.9684H11.1644V26.8562ZM16.6475 30.1928H13.3577V27.9684H16.6475V30.1928ZM21.0339 33.5294H16.6475V30.1928H21.0339V33.5294ZM21.0339 37.9781V33.5294H26.517V37.9781H21.0339ZM16.6475 41.3147V37.9781H21.0339V41.3147H16.6475ZM13.3577 43.5391V41.3147H16.6475V43.5391H13.3577ZM13.3577 43.5391V44.6513H11.1644V43.5391H13.3577ZM44.0627 35.7538L55.0288 26.8562L45.1593 31.305L47.3525 27.9684L35.2898 35.7538L47.3525 43.5391L45.1593 40.2025L55.0288 44.6513L44.0627 35.7538ZM22.1305 44.689C22.1305 44.4946 22.4012 44.4543 22.4563 44.6405L22.8705 46.0407C24.1502 50.3671 30.1696 50.4267 31.5325 46.1265L32 44.6513L32.4675 46.1265C33.8304 50.4267 39.8498 50.3671 41.1295 46.0407L41.5437 44.6405C41.5987 44.4543 41.8695 44.4946 41.8695 44.689C41.8695 45.4022 41.7766 46.1123 41.5933 46.8008L41.1293 48.5439L40.718 50.7683L39.8956 50.2122C37.9973 50.9253 35.8993 50.8577 34.0495 50.0239L32 49.1L29.9505 50.0239C28.1007 50.8577 26.0027 50.9253 24.1044 50.2122L23.282 50.7683L22.8707 48.5439L22.4067 46.8008C22.2234 46.1123 22.1305 45.4022 22.1305 44.689Z"/>
</svg>
