<svg width="64" height="64" viewBox="0 0 64 64" xmlns="http://www.w3.org/2000/svg">
<path d="M19.091 15.0006C21.0177 15.0251 21.0082 17.6332 21.0009 19.6436C21.0004 19.7647 21 19.8839 21 20C21 22.2091 22.7909 24 25 24C25.3374 24 25.6171 24.3142 25.4904 24.6269C24.4515 27.1913 21.937 29 19 29C18.1787 29 17.3905 28.8586 16.6583 28.5987C15.7937 28.2919 15.8848 26.946 15.9608 25.8224C15.9809 25.5249 16 25.243 16 25C16 23.8954 15.1046 23 14 23C13.9786 23 13.9574 23.0003 13.9362 23.001C13.1731 23.0249 12 22.7635 12 22C12 18.134 15.134 15 19 15L19.0644 15.0003L19.091 15.0006Z"/>
<path d="M36.2426 39.7574C36.3215 39.8362 36.398 39.9171 36.4721 40C36.398 40.0829 36.3215 40.1638 36.2426 40.2426C35.6855 40.7998 35.0241 41.2417 34.2961 41.5433C33.5681 41.8448 32.7879 42 32 42C31.2121 42 30.4319 41.8448 29.7039 41.5433C28.9759 41.2417 28.3145 40.7998 27.7574 40.2426C27.6785 40.1638 27.602 40.0829 27.5279 40C27.602 39.9171 27.6785 39.8362 27.7574 39.7574C28.3145 39.2002 28.9759 38.7583 29.7039 38.4567C30.4319 38.1552 31.2121 38 32 38C32.7879 38 33.5681 38.1552 34.2961 38.4567C35.0241 38.7583 35.6855 39.2002 36.2426 39.7574Z"/>
<path fill-rule="evenodd" clip-rule="evenodd" d="M2.43585 35.8883C0.827704 33.7044 0 31.3638 0 29C0 26.8899 0.212357 24.8275 0.614797 22.8315C3.28938 9.56613 18.4677 5 32 5C45.5323 5 60.7106 9.56613 63.3852 22.8315C63.7876 24.8275 64 26.8899 64 29C64 31.3638 63.1723 33.7044 61.5641 35.8883C59.956 38.0722 57.5989 40.0565 54.6274 41.7279C51.6559 43.3994 48.1283 44.7252 44.2459 45.6298C40.3634 46.5344 36.2023 47 32 47C27.7977 47 23.6365 46.5344 19.7541 45.6298C15.8717 44.7252 12.3441 43.3994 9.37258 41.7279C6.40111 40.0565 4.044 38.0722 2.43585 35.8883ZM48.3199 18.2259C48.3612 18.149 48.3841 18.0639 48.4297 17.8936L49.1145 15.3379C49.2975 14.6549 49.389 14.3134 49.2337 14.0443C49.0783 13.7753 48.7368 13.6838 48.0538 13.5008L46.6049 13.1126C45.9219 12.9295 45.5804 12.838 45.3114 12.9934C45.0423 13.1487 44.9508 13.4902 44.7678 14.1732L44.083 16.729C44.0374 16.8991 44.0146 16.9843 44.012 17.0716C44.0093 17.1589 44.027 17.2452 44.0623 17.4179L44.3986 19.0609C44.661 20.3433 44.7922 20.9846 45.2399 21.1045C45.6877 21.2245 46.1219 20.7348 46.9904 19.7554L48.1031 18.5006C48.22 18.3687 48.2785 18.3028 48.3199 18.2259ZM41.6801 25.7741C41.6388 25.851 41.616 25.9361 41.5703 26.1064L40.8855 28.6621C40.7025 29.3451 40.611 29.6866 40.7663 29.9557C40.9217 30.2247 41.2632 30.3162 41.9462 30.4992L43.3951 30.8874C44.0781 31.0705 44.4196 31.162 44.6886 31.0066C44.9577 30.8513 45.0492 30.5098 45.2322 29.8268L45.917 27.271C45.9626 27.1008 45.9854 27.0157 45.988 26.9284C45.9907 26.8412 45.973 26.7549 45.9378 26.5826L45.6014 24.9391C45.339 23.6567 45.2078 23.0154 44.7601 22.8955C44.3123 22.7755 43.8781 23.2652 43.0096 24.2446L41.8969 25.4994C41.78 25.6313 41.7215 25.6972 41.6801 25.7741ZM41.2259 18.6801C41.149 18.6388 41.0639 18.6159 40.8936 18.5703L38.3379 17.8855C37.6549 17.7025 37.3134 17.611 37.0443 17.7663C36.7753 17.9217 36.6838 18.2632 36.5008 18.9462L36.1126 20.3951C35.9295 21.0781 35.838 21.4196 35.9934 21.6886C36.1487 21.9577 36.4902 22.0492 37.1732 22.2322L39.729 22.917C39.8991 22.9626 39.9843 22.9854 40.0716 22.988C40.1589 22.9907 40.2452 22.973 40.4178 22.9377L42.0609 22.6014C43.3433 22.339 43.9846 22.2078 44.1045 21.7601C44.2245 21.3123 43.7348 20.8781 42.7554 20.0096L41.5006 18.8969C41.3687 18.78 41.3028 18.7215 41.2259 18.6801ZM48.7741 25.3199C48.851 25.3612 48.9361 25.384 49.1063 25.4297L51.6621 26.1145C52.3451 26.2975 52.6866 26.389 52.9557 26.2337C53.2247 26.0783 53.3162 25.7368 53.4992 25.0538L53.8874 23.6049C54.0705 22.9219 54.162 22.5804 54.0066 22.3114C53.8513 22.0423 53.5098 21.9508 52.8268 21.7678L50.271 21.083C50.1009 21.0374 50.0157 21.0146 49.9284 21.012C49.8411 21.0093 49.7548 21.027 49.5821 21.0623L47.9391 21.3986C46.6567 21.661 46.0154 21.7922 45.8955 22.2399C45.7755 22.6877 46.2652 23.1219 47.2446 23.9904L48.4994 25.1031C48.6312 25.2199 48.6972 25.2785 48.7741 25.3199ZM28 22C28 26.9706 23.9706 31 19 31C14.0294 31 10 26.9706 10 22C10 17.0294 14.0294 13 19 13C23.9706 13 28 17.0294 28 22ZM39.391 38.0615C39.7931 37.0909 40 36.0506 40 35H24C24 36.0506 24.2069 37.0909 24.609 38.0615C25.011 39.0321 25.6003 39.914 26.3431 40.6569C27.086 41.3997 27.9679 41.989 28.9385 42.391C29.9091 42.7931 30.9494 43 32 43C33.0506 43 34.0909 42.7931 35.0615 42.391C36.0321 41.989 36.914 41.3997 37.6569 40.6569C38.3997 39.914 38.989 39.0321 39.391 38.0615Z"/>
<path fill-rule="evenodd" clip-rule="evenodd" d="M58.5152 46.9207C58.9581 46.2667 58.113 45.5324 57.4558 45.9706C54.1129 48.1992 50.1443 49.967 45.7766 51.1731C41.4089 52.3792 36.7276 53 32 53C27.2724 53 22.5911 52.3792 18.2234 51.1731C13.8557 49.967 9.88706 48.1992 6.54415 45.9706C5.88696 45.5324 5.04194 46.2667 5.48482 46.9207C11.238 55.4163 20.9669 61 32 61C43.0331 61 52.762 55.4163 58.5152 46.9207ZM25 55V59H25.3555V55H25ZM25.5332 55V59H25.711V55H25.5332ZM26.0664 55V59H26.2442V55H26.0664ZM26.9556 55V59H27.1334V55H26.9556ZM27.3111 55V59H27.4888V55H27.3111ZM28.0221 55V59H28.3776V55H28.0221ZM28.9112 55V59H29.2667V55H28.9112ZM29.6222 55V59H29.8V55H29.6222ZM29.9777 55V59H30.1554V55H29.9777ZM30.8669 55V59H31.2223V55H30.8669ZM31.5778 55V59H31.7556V55H31.5778ZM31.9333 55V59H32.1111V55H31.9333ZM32.8225 55V59H33.0002V55H32.8225ZM33.5335 55V59H34.2444V55H33.5335ZM34.4222 55V59H34.5999V55H34.4222ZM34.7782 55V59H35.1336V55H34.7782ZM35.3114 55V59H35.6669V55H35.3114ZM35.8446 55V59H36.5556V55H35.8446ZM36.7337 55V59H36.9114V55H36.7337ZM37.0892 55V59H37.4447V55H37.0892ZM37.6224 55V59H38.1556V55H37.6224ZM38.6894 55V59H39.0448V55H38.6894ZM39.5781 55V59H40.1113V55H39.5781ZM40.289 55V59H40.4668V55H40.289ZM40.6445 55V59H41V55H40.6445Z"/>
</svg>
