<svg width="64" height="64" viewBox="0 0 64 64" xmlns="http://www.w3.org/2000/svg">
<path d="M19.091 14.0006C21.0177 14.0251 21.0082 16.6332 21.0009 18.6436C21.0004 18.7647 21 18.8839 21 19C21 21.2091 22.7909 23 25 23C25.3374 23 25.6171 23.3142 25.4904 23.6269C24.4515 26.1913 21.937 28 19 28C18.1787 28 17.3905 27.8586 16.6583 27.5987C15.7937 27.2919 15.8848 25.946 15.9608 24.8224C15.9809 24.5249 16 24.243 16 24C16 22.8954 15.1046 22 14 22C13.9786 22 13.9574 22.0003 13.9362 22.001C13.1731 22.0249 12 21.7635 12 21C12 17.134 15.134 14 19 14L19.0644 14.0003L19.091 14.0006Z"/>
<path d="M36.2426 38.7574C36.3215 38.8362 36.398 38.9171 36.4721 39C36.398 39.0829 36.3215 39.1638 36.2426 39.2426C35.6855 39.7998 35.0241 40.2417 34.2961 40.5433C33.5681 40.8448 32.7879 41 32 41C31.2121 41 30.4319 40.8448 29.7039 40.5433C28.9759 40.2417 28.3145 39.7998 27.7574 39.2426C27.6785 39.1638 27.602 39.0829 27.5279 39C27.602 38.9171 27.6785 38.8362 27.7574 38.7574C28.3145 38.2002 28.9759 37.7583 29.7039 37.4567C30.4319 37.1552 31.2121 37 32 37C32.7879 37 33.5681 37.1552 34.2961 37.4567C35.0241 37.7583 35.6855 38.2002 36.2426 38.7574Z"/>
<path fill-rule="evenodd" clip-rule="evenodd" d="M2.43585 34.8883C0.827704 32.7044 0 30.3638 0 28C0 25.8899 0.212357 23.8275 0.614797 21.8315C3.28938 8.56613 18.4677 4 32 4C45.5323 4 60.7106 8.56613 63.3852 21.8315C63.7876 23.8275 64 25.8899 64 28C64 30.3638 63.1723 32.7044 61.5641 34.8883C59.956 37.0722 57.5989 39.0565 54.6274 40.7279C51.6559 42.3994 48.1283 43.7252 44.2459 44.6298C40.3634 45.5344 36.2023 46 32 46C27.7977 46 23.6365 45.5344 19.7541 44.6298C15.8717 43.7252 12.3441 42.3994 9.37258 40.7279C6.40111 39.0565 4.044 37.0722 2.43585 34.8883ZM48.3199 17.2259C48.3612 17.149 48.3841 17.0639 48.4297 16.8936L49.1145 14.3379C49.2975 13.6549 49.389 13.3134 49.2337 13.0443C49.0783 12.7753 48.7368 12.6838 48.0538 12.5008L46.6049 12.1126C45.9219 11.9295 45.5804 11.838 45.3114 11.9934C45.0423 12.1487 44.9508 12.4902 44.7678 13.1732L44.083 15.729C44.0374 15.8991 44.0146 15.9843 44.012 16.0716C44.0093 16.1589 44.027 16.2452 44.0623 16.4179L44.3986 18.0609C44.661 19.3433 44.7922 19.9846 45.2399 20.1045C45.6877 20.2245 46.1219 19.7348 46.9904 18.7554L48.1031 17.5006C48.22 17.3687 48.2785 17.3028 48.3199 17.2259ZM41.6801 24.7741C41.6388 24.851 41.616 24.9361 41.5703 25.1064L40.8855 27.6621C40.7025 28.3451 40.611 28.6866 40.7663 28.9557C40.9217 29.2247 41.2632 29.3162 41.9462 29.4992L43.3951 29.8874C44.0781 30.0705 44.4196 30.162 44.6886 30.0066C44.9577 29.8513 45.0492 29.5098 45.2322 28.8268L45.917 26.271C45.9626 26.1008 45.9854 26.0157 45.988 25.9284C45.9907 25.8412 45.973 25.7549 45.9378 25.5826L45.6014 23.9391C45.339 22.6567 45.2078 22.0154 44.7601 21.8955C44.3123 21.7755 43.8781 22.2652 43.0096 23.2446L41.8969 24.4994C41.78 24.6313 41.7215 24.6972 41.6801 24.7741ZM41.2259 17.6801C41.149 17.6388 41.0639 17.6159 40.8936 17.5703L38.3379 16.8855C37.6549 16.7025 37.3134 16.611 37.0443 16.7663C36.7753 16.9217 36.6838 17.2632 36.5008 17.9462L36.1126 19.3951C35.9295 20.0781 35.838 20.4196 35.9934 20.6886C36.1487 20.9577 36.4902 21.0492 37.1732 21.2322L39.729 21.917C39.8991 21.9626 39.9843 21.9854 40.0716 21.988C40.1589 21.9907 40.2452 21.973 40.4178 21.9377L42.0609 21.6014C43.3433 21.339 43.9846 21.2078 44.1045 20.7601C44.2245 20.3123 43.7348 19.8781 42.7554 19.0096L41.5006 17.8969C41.3687 17.78 41.3028 17.7215 41.2259 17.6801ZM48.7741 24.3199C48.851 24.3612 48.9361 24.384 49.1063 24.4297L51.6621 25.1145C52.3451 25.2975 52.6866 25.389 52.9557 25.2337C53.2247 25.0783 53.3162 24.7368 53.4992 24.0538L53.8874 22.6049C54.0705 21.9219 54.162 21.5804 54.0066 21.3114C53.8513 21.0423 53.5098 20.9508 52.8268 20.7678L50.271 20.083C50.1009 20.0374 50.0157 20.0146 49.9284 20.012C49.8411 20.0093 49.7548 20.027 49.5821 20.0623L47.9391 20.3986C46.6567 20.661 46.0154 20.7922 45.8955 21.2399C45.7755 21.6877 46.2652 22.1219 47.2446 22.9904L48.4994 24.1031C48.6312 24.2199 48.6972 24.2785 48.7741 24.3199ZM28 21C28 25.9706 23.9706 30 19 30C14.0294 30 10 25.9706 10 21C10 16.0294 14.0294 12 19 12C23.9706 12 28 16.0294 28 21ZM39.391 37.0615C39.7931 36.0909 40 35.0506 40 34H24C24 35.0506 24.2069 36.0909 24.609 37.0615C25.011 38.0321 25.6003 38.914 26.3431 39.6569C27.086 40.3997 27.9679 40.989 28.9385 41.391C29.9091 41.7931 30.9494 42 32 42C33.0506 42 34.0909 41.7931 35.0615 41.391C36.0321 40.989 36.914 40.3997 37.6569 39.6569C38.3997 38.914 38.989 38.0321 39.391 37.0615Z"/>
<path fill-rule="evenodd" clip-rule="evenodd" d="M58.5152 45.9207C58.9581 45.2667 58.113 44.5324 57.4558 44.9706C54.1129 47.1992 50.1443 48.967 45.7766 50.1731C41.4089 51.3792 36.7276 52 32 52C27.2724 52 22.5911 51.3792 18.2234 50.1731C13.8557 48.967 9.88706 47.1992 6.54415 44.9706C5.88696 44.5324 5.04194 45.2667 5.48482 45.9207C11.238 54.4163 20.9669 60 32 60C43.0331 60 52.762 54.4163 58.5152 45.9207ZM25 54V58H25.3555V54H25ZM25.5332 54V58H25.711V54H25.5332ZM26.0664 54V58H26.2442V54H26.0664ZM26.9556 54V58H27.1334V54H26.9556ZM27.3111 54V58H27.4888V54H27.3111ZM28.0221 54V58H28.3776V54H28.0221ZM28.9112 54V58H29.2667V54H28.9112ZM29.6222 54V58H29.8V54H29.6222ZM29.9777 54V58H30.1554V54H29.9777ZM30.8669 54V58H31.2223V54H30.8669ZM31.5778 54V58H31.7556V54H31.5778ZM31.9333 54V58H32.1111V54H31.9333ZM32.8225 54V58H33.0002V54H32.8225ZM33.5335 54V58H34.2444V54H33.5335ZM34.4222 54V58H34.5999V54H34.4222ZM34.7782 54V58H35.1336V54H34.7782ZM35.3114 54V58H35.6669V54H35.3114ZM35.8446 54V58H36.5556V54H35.8446ZM36.7337 54V58H36.9114V54H36.7337ZM37.0892 54V58H37.4447V54H37.0892ZM37.6224 54V58H38.1556V54H37.6224ZM38.6894 54V58H39.0448V54H38.6894ZM39.5781 54V58H40.1113V54H39.5781ZM40.289 54V58H40.4668V54H40.289ZM40.6445 54V58H41V54H40.6445Z"/>
</svg>
