<svg width="64" height="64" viewBox="0 0 64 64" xmlns="http://www.w3.org/2000/svg">
<path fill-rule="evenodd" clip-rule="evenodd" d="M28.0431 20.3112C27.4097 22.5018 25.459 23.9208 23.6861 23.4805C21.9131 23.0403 20.9894 20.9076 21.6228 18.717C22.2562 16.5264 24.2069 15.1074 25.9798 15.5477C27.7528 15.9879 28.6765 18.1206 28.0431 20.3112ZM25.9883 18.6737L26.7585 18.1134C26.572 17.6829 26.2804 17.3685 25.933 17.1826C25.9401 17.1674 25.9462 17.1514 25.951 17.1347L26.0218 16.8898C26.0569 16.7687 26.0163 16.6467 25.9221 16.6109C25.8481 16.5827 25.7717 16.5588 25.6931 16.5393C25.6145 16.5197 25.5355 16.5051 25.4562 16.4952C25.3553 16.4825 25.2543 16.5695 25.2193 16.6905L25.1485 16.9354C25.1437 16.9521 25.1403 16.9688 25.1383 16.9852C24.7371 16.9853 24.3149 17.1224 23.9211 17.4089C22.8576 18.1824 22.4038 19.7521 22.9074 20.9148C23.0939 21.3453 23.3855 21.6597 23.7329 21.8456C23.7258 21.8608 23.7197 21.8768 23.7149 21.8935L23.6441 22.1384C23.6091 22.2595 23.6496 22.3815 23.7438 22.4173C23.8178 22.4455 23.8942 22.4694 23.9728 22.4889C24.0514 22.5084 24.1305 22.5231 24.2097 22.533C24.3106 22.5457 24.4116 22.4587 24.4466 22.3377L24.5174 22.0928C24.5205 22.082 24.523 22.0712 24.525 22.0606C24.526 22.0547 24.5269 22.0488 24.5277 22.043C24.9288 22.0429 25.351 21.9058 25.7448 21.6193L25.3801 20.7772C24.742 21.2414 23.9798 21.0521 23.6776 20.3545C23.3755 19.6569 23.6478 18.7151 24.2858 18.251C24.9239 17.7868 25.6861 17.9761 25.9883 18.6737Z"/>
<path fill-rule="evenodd" clip-rule="evenodd" d="M13.3861 21.6868C19.8482 29.814 43.3891 33.236 55.852 25.9643C58.4833 14.3202 48.3733 2.39628 35.5422 2.01052C23.5642 1.65041 13.5073 10.5817 13.3861 21.6868ZM28.8457 20.5105C28.0539 23.2487 25.6155 25.0224 23.3993 24.4721C21.1832 23.9219 20.0285 21.256 20.8202 18.5177C21.612 15.7795 24.0504 14.0058 26.2666 14.556C28.4827 15.1063 29.6374 17.7722 28.8457 20.5105ZM30.6049 15.8543L32.4355 16.0776L32.3752 16.5017L31.6888 16.418L31.508 17.6902L31.0504 17.6344L31.2311 16.3621L30.5447 16.2784L30.6049 15.8543ZM33.3508 16.1893L32.8931 16.1335L32.6521 17.8298L33.1098 17.8856L33.2604 16.8254L33.8565 17.5453L34.6333 16.9929L34.4827 18.0531L34.9403 18.109L35.1813 16.4126L34.7237 16.3568L33.9468 16.9092L33.3508 16.1893Z"/>
<path d="M37.5916 31.9068C24.1652 31.3063 14.4562 27.0924 12.0012 22.5423C6.46221 25.1088 0 28.5308 0 32.8082C0 37.1883 8.3228 42.2703 18.3712 42.9882L17 40.9482L15.5 37.5344L37.5916 31.9068Z"/>
<path d="M36.5639 36.3466L23.982 39.5105L25.366 41.5769C26.0958 42.6665 27.4972 43.1826 28.8218 42.8495L34.1513 41.5093C35.476 41.1762 36.4147 40.0717 36.4662 38.7856L36.5639 36.3466Z"/>
<path d="M59.2113 30.6515L46.6294 33.8154L48.0135 35.8818C48.7433 36.9715 50.1446 37.4875 51.4693 37.1544L56.7988 35.8142C58.1235 35.4811 59.0622 34.3766 59.1137 33.0905L59.2113 30.6515Z"/>
<path fill-rule="evenodd" clip-rule="evenodd" d="M63.6373 27.2605L18.3423 38.6506C18.7421 40.0508 19.4618 41.3525 20.4513 42.4655L20.7616 42.8144C21.2079 43.3164 21.61 43.8517 21.9638 44.4149L22.0792 44.5986C22.7925 45.7339 24.2248 46.2835 25.5813 45.9424L39.7255 42.3856C40.4201 42.2109 40.9053 41.623 40.9119 40.9482L40.9616 35.8504C40.9651 35.4892 41.2249 35.1745 41.5967 35.081C41.9684 34.9875 42.361 35.1381 42.5565 35.4493L45.3156 39.8409C45.6808 40.4222 46.4142 40.7036 47.1088 40.5289L61.253 36.9721C62.6095 36.6311 63.5571 35.4829 63.57 34.1651L63.5721 33.9518C63.5784 33.2981 63.6415 32.6459 63.7606 32.0017L63.8433 31.5539C64.1074 30.1257 64.037 28.6607 63.6373 27.2605ZM21.1622 39.0805L38.7768 34.6511L38.6841 39.3118C38.6581 40.6192 37.7134 41.7525 36.3676 42.091L27.2124 44.3932C25.8667 44.7316 24.4447 44.1934 23.7256 43.0734L21.1622 39.0805ZM61.4243 28.956L43.8096 33.3855L46.3731 37.3783C47.0921 38.4983 48.5141 39.0365 49.8599 38.6981L59.015 36.3959C60.3608 36.0575 61.3055 34.9241 61.3316 33.6168L61.4243 28.956Z"/>
<path d="M32.948 48.029C33.2306 48.2829 33.3946 48.662 33.3589 49.0698C33.3233 49.4776 33.096 49.8226 32.7737 50.0235C32.4911 49.7696 32.3271 49.3904 32.3627 48.9826C32.3984 48.5748 32.6257 48.2299 32.948 48.029Z"/>
<path fill-rule="evenodd" clip-rule="evenodd" d="M19.7499 44.6125L20.9319 46.3026C21.8774 47.6547 23.5548 48.2875 25.1566 47.8964L33.6292 45.8279L35.1365 45.9599C36.2368 46.0563 37.0508 47.0273 36.9545 48.1287L36.3009 55.6074L12.3922 53.5137L13.0459 46.035C13.1421 44.9335 14.1122 44.1188 15.2126 44.2151L19.7499 44.6125ZM14.6896 50.1981L26.644 51.245L26.5132 52.7407L14.5589 51.6938L14.6896 50.1981ZM32.948 48.029C32.7535 47.8543 32.503 47.7389 32.2226 47.7143C31.5349 47.6541 30.9286 48.1633 30.8684 48.8517C30.8083 49.5401 31.317 50.147 32.0047 50.2072C32.2851 50.2318 32.5519 50.1617 32.7737 50.0235C32.9681 50.1982 33.2187 50.3135 33.499 50.3381C34.1868 50.3983 34.793 49.8891 34.8532 49.2007C34.9134 48.5123 34.4046 47.9054 33.7169 47.8452C33.4366 47.8206 33.1698 47.8907 32.948 48.029Z"/>
<path d="M12.1743 56.0066L36.083 58.1003C35.9867 59.2017 35.0167 60.0165 33.9163 59.9202L13.9924 58.1754C12.892 58.079 12.078 57.108 12.1743 56.0066Z"/>
<path fill-rule="evenodd" clip-rule="evenodd" d="M44.3676 42.4545L42.2297 43.0279C42.6608 42.6133 42.8975 42.0135 42.8346 41.3844L42.7299 40.3366L43.2462 40.6827L43.5859 39.9914L44.275 41.233C44.692 41.9842 45.5393 42.3827 46.3783 42.231L50.6993 58.373L49.5953 57.6329L49.009 58.8264L47.905 58.0862L47.3186 59.2798L46.2146 58.5396L45.6282 59.7331L44.5242 58.993L43.9379 60.1865L42.8339 59.4463L42.2475 60.6399L41.1435 59.8997L40.5571 61.0933L39.4531 60.3531L38.8668 61.5466L37.7627 60.8065L37.1764 62L36.8897 60.9289C37.682 60.2699 38.2213 59.3067 38.3182 58.1983L38.4691 56.4719L41.6778 55.6113L40.6426 51.7438L38.8401 52.2273L38.9328 51.1661L44.2475 49.7407L43.9886 48.7738L39.0256 50.105L39.1897 48.2267C39.1968 48.1457 39.2014 48.0649 39.2037 47.9847L41.5391 47.3583L41.2803 46.3914L39.1031 46.9753C39.0268 46.6444 38.909 46.328 38.7553 46.0323L44.8852 44.3883L44.3676 42.4545ZM46.6969 51.1563L47.2146 53.09L43.3509 54.1263L42.8332 52.1926L46.6969 51.1563Z"/>
</svg>
