<svg width="64" height="64" viewBox="0 0 64 64" xmlns="http://www.w3.org/2000/svg">
<g clip-path="url(#clip0_6_2)">
<path fill-rule="evenodd" clip-rule="evenodd" d="M0 22.2041H5.33333C5.33333 9.9411 15.4815 0 28 0C29.3649 0 30.7016 0.118172 32 0.344642C26.6853 1.27163 22.0115 4.01304 18.6699 7.89169C13.857 10.9087 10.6667 16.1914 10.6667 22.2041H13.3333C13.3333 16.7508 15.3402 11.7566 18.6699 7.89169C21.3634 6.20328 24.565 5.22449 28 5.22449C29.3767 5.22449 30.716 5.38172 32 5.67884C24.3555 7.44776 18.6667 14.1751 18.6667 22.2041H45.3333C45.3333 14.1751 39.6445 7.44776 32 5.67884C33.2841 5.38172 34.6233 5.22449 36 5.22449C39.435 5.22449 42.6366 6.2033 45.3301 7.8917C48.6598 11.7566 50.6667 16.7508 50.6667 22.2041H53.3333C53.3333 16.1914 50.143 10.9087 45.3301 7.8917C41.9886 4.01305 37.3148 1.27163 32 0.344642C33.2984 0.118172 34.6351 0 36 0C48.5185 0 58.6667 9.94111 58.6667 22.2041H64V56.1633C64 60.4914 60.4183 64 56 64H8C3.58172 64 0 60.4914 0 56.1633V22.2041ZM28.9524 27.4286H22.8571L10.6667 39.9673L16.7619 46.2367L22.8571 39.9673V58.7755H28.9524L29.9274 42.7303C27.5814 41.8578 25.9048 39.5466 25.9048 36.8327C25.9048 34.1622 27.5281 31.8816 29.8151 30.9781L28.9524 27.4286ZM35.0476 58.7755L34.0726 42.7303C36.4186 41.8578 38.0952 39.5466 38.0952 36.8327C38.0952 34.1622 36.4719 31.8816 34.1849 30.9781L35.0476 27.4286H41.1429L53.3333 39.9673L47.2381 46.2367L41.1429 39.9673V58.7755H35.0476ZM32.4233 33.5819V32.6531C31.9557 32.6531 31.5767 33.0689 31.5767 33.5819H31.1534C30.9311 33.5819 30.7109 33.6299 30.5055 33.7233C30.3001 33.8166 30.1134 33.9534 29.9562 34.1259C29.799 34.2984 29.6743 34.5032 29.5892 34.7286C29.5041 34.954 29.4603 35.1955 29.4603 35.4395C29.4603 35.6834 29.5041 35.925 29.5892 36.1503C29.6743 36.3757 29.799 36.5805 29.9562 36.753C30.1134 36.9255 30.3001 37.0623 30.5055 37.1557C30.7109 37.249 30.9311 37.2971 31.1534 37.2971H32.8466C32.9577 37.2971 33.0678 37.3211 33.1705 37.3678C33.2732 37.4144 33.3666 37.4828 33.4452 37.5691C33.5238 37.6553 33.5861 37.7577 33.6287 37.8704C33.6712 37.9831 33.6931 38.1039 33.6931 38.2258C33.6931 38.3478 33.6712 38.4686 33.6287 38.5813C33.5861 38.694 33.5238 38.7964 33.4452 38.8826C33.3666 38.9689 33.2732 39.0373 33.1705 39.084C33.0678 39.1306 32.9577 39.1546 32.8466 39.1546H30.3069C29.8393 39.1546 29.4603 39.5705 29.4603 40.0834H31.5767V41.0122C32.0443 41.0122 32.4233 40.5964 32.4233 40.0834H32.8466C33.0689 40.0834 33.2891 40.0354 33.4945 39.942C33.6999 39.8487 33.8866 39.7119 34.0438 39.5394C34.201 39.3669 34.3257 39.1621 34.4108 38.9367C34.4959 38.7113 34.5397 38.4698 34.5397 38.2258C34.5397 37.9819 34.4959 37.7404 34.4108 37.515C34.3257 37.2896 34.201 37.0848 34.0438 36.9123C33.8866 36.7398 33.6999 36.603 33.4945 36.5097C33.2891 36.4163 33.0689 36.3683 32.8466 36.3683H31.1534C31.0423 36.3683 30.9322 36.3442 30.8295 36.2976C30.7268 36.2509 30.6334 36.1825 30.5548 36.0962C30.4762 36.01 30.4139 35.9076 30.3713 35.7949C30.3288 35.6822 30.3069 35.5614 30.3069 35.4395C30.3069 35.3175 30.3288 35.1967 30.3713 35.084C30.4139 34.9713 30.4762 34.8689 30.5548 34.7827C30.6334 34.6964 30.7268 34.628 30.8295 34.5814C30.9322 34.5347 31.0423 34.5107 31.1534 34.5107H33.6931C34.1607 34.5107 34.5397 34.0948 34.5397 33.5819H32.4233ZM32.4233 38.6903V37.7614H31.5767V38.6903H32.4233ZM31.5767 34.9751H32.4233V35.9039H31.5767V34.9751Z"/>
</g>
<defs>
<clipPath id="clip0_6_2">
<rect width="64" height="64"/>
</clipPath>
</defs>
</svg>
