<svg width="64" height="64" viewBox="0 0 64 64" xmlns="http://www.w3.org/2000/svg">
<path fill-rule="evenodd" clip-rule="evenodd" d="M61 16.3077C61 20.8633 58.5868 24.8408 55 26.9688V28.6154C55 30.0659 55 30.7911 54.5607 31.2417C54.1213 31.6923 53.4142 31.6923 52 31.6923H46C44.5858 31.6923 43.8787 31.6923 43.4393 31.2417C43 30.7911 43 30.0659 43 28.6154V26.9688C39.4132 24.8408 37 20.8633 37 16.3077C37 9.51034 42.3726 4 49 4C55.6274 4 61 9.51034 61 16.3077ZM48.0493 22.4615C47.9176 22.6951 47.7277 22.8898 47.5 23.025V28.6154H46V23.025C45.5517 22.7589 45.25 22.2618 45.25 21.6923C45.25 20.8426 45.9216 20.1538 46.75 20.1538C47.3052 20.1538 47.79 20.4632 48.0493 20.9231H49.9507C50.21 20.4632 50.6948 20.1538 51.25 20.1538C52.0784 20.1538 52.75 20.8426 52.75 21.6923C52.75 22.2618 52.4483 22.7589 52 23.025V28.6154H50.5V23.025C50.2723 22.8898 50.0824 22.6951 49.9507 22.4615H48.0493Z"/>
<path d="M44.5 34.7692C43.6716 34.7692 43 35.458 43 36.3077V37.8462L49 34.7692H44.5Z"/>
<path d="M43 40.9231L54.4001 35.0769C54.7644 35.3576 55 35.8044 55 36.3077V37.8462L43.5999 43.6924C43.2356 43.4117 43 42.9648 43 42.4615V40.9231Z"/>
<path d="M55 42.4615V40.9231L49 44H53.5C54.3284 44 55 43.3112 55 42.4615Z"/>
<path fill-rule="evenodd" clip-rule="evenodd" d="M41 34V42.4615C41 43.5998 41.5352 44.6263 42.3792 45.2766C42.5665 45.4209 42.7769 45.5301 43 45.6003V60H31V34H41ZM36.8333 50H35V56H39V52.375C39 52.0989 38.7761 51.875 38.5 51.875H38.3333C37.781 51.875 37.3333 51.4273 37.3333 50.875V50.5C37.3333 50.2239 37.1095 50 36.8333 50ZM37.6667 51V50.375L38.6667 51.5H38.1667C37.8905 51.5 37.6667 51.2761 37.6667 51Z"/>
<path fill-rule="evenodd" clip-rule="evenodd" d="M41 32V28.0508C39.4838 26.9702 38.1885 25.5918 37.1937 24H3V32H41ZM10.95 30H6.4C5.6268 30 5 29.403 5 28.6667C5 27.9303 5.6268 27.3333 6.4 27.3333C6.43967 27.3333 6.47894 27.3349 6.51777 27.338C6.80468 26.5588 7.58382 26 8.5 26C9.6598 26 10.6 26.8954 10.6 28H10.95C11.5299 28 12 28.4477 12 29C12 29.5523 11.5299 30 10.95 30Z"/>
<path fill-rule="evenodd" clip-rule="evenodd" d="M35.0032 16C35.0011 16.1023 35 16.2049 35 16.3077C35 18.3283 35.4105 20.2538 36.1522 22H3V19C3 17.3431 4.34315 16 6 16H35.0032ZM7 19C7 19.5523 6.55228 20 6 20C5.44772 20 5 19.5523 5 19C5 18.4477 5.44772 18 6 18C6.55228 18 7 18.4477 7 19ZM10 20C10.5523 20 11 19.5523 11 19C11 18.4477 10.5523 18 10 18C9.44772 18 9 18.4477 9 19C9 19.5523 9.44772 20 10 20ZM15 19C15 19.5523 14.5523 20 14 20C13.4477 20 13 19.5523 13 19C13 18.4477 13.4477 18 14 18C14.5523 18 15 18.4477 15 19Z"/>
<path d="M3.87868 34.8787C3 35.7574 3 37.1716 3 40C3 42.8284 3 44.2426 3.87868 45.1213C4.75736 46 6.17157 46 9 46C11.8284 46 13.2426 46 14.1213 45.1213C15 44.2426 15 42.8284 15 40C15 37.1716 15 35.7574 14.1213 34.8787C13.2426 34 11.8284 34 9 34C6.17157 34 4.75736 34 3.87868 34.8787Z"/>
<path d="M23 48C19.6863 48 17 50.6863 17 54C17 57.3137 19.6863 60 23 60C26.3137 60 29 57.3137 29 54C29 50.6863 26.3137 48 23 48Z"/>
<path fill-rule="evenodd" clip-rule="evenodd" d="M49.8545 48.1092C50.2253 48.0375 50.6083 48 51 48C51.3917 48 51.7747 48.0375 52.1455 48.1092L52.4511 49.7391C53.0135 49.9306 53.5258 50.2302 53.9633 50.6133L55.5288 50.0626C55.7763 50.3479 56.0003 50.6608 56.1962 51C56.392 51.3392 56.551 51.6897 56.6743 52.0466L55.4153 53.1265C55.4709 53.4091 55.5 53.7011 55.5 54C55.5 54.2989 55.4709 54.5909 55.4153 54.8735L56.6743 55.9534C56.551 56.3103 56.392 56.6608 56.1962 57C56.0003 57.3392 55.7763 57.6521 55.5288 57.9374L53.9633 57.3867C53.5258 57.7698 53.0135 58.0694 52.4511 58.2609L52.1455 59.8908C51.7747 59.9625 51.3917 60 51 60C50.6083 60 50.2253 59.9625 49.8545 59.8908L49.5489 58.2609C48.9865 58.0694 48.4742 57.7698 48.0367 57.3867L46.4712 57.9374C46.2237 57.6521 45.9997 57.3392 45.8038 57C45.608 56.6608 45.449 56.3103 45.3257 55.9534L46.5847 54.8735C46.5291 54.5909 46.5 54.2989 46.5 54C46.5 53.7011 46.5291 53.4091 46.5847 53.1265L45.3257 52.0466C45.449 51.6897 45.608 51.3392 45.8038 51C45.9997 50.6608 46.2237 50.3479 46.4712 50.0626L48.0367 50.6133C48.4742 50.2302 48.9865 49.9306 49.5489 49.7391L49.8545 48.1092ZM53.25 54C53.25 55.2426 52.2426 56.25 51 56.25C49.7574 56.25 48.75 55.2426 48.75 54C48.75 52.7574 49.7574 51.75 51 51.75C52.2426 51.75 53.25 52.7574 53.25 54Z"/>
<path d="M18.8462 36.3077C18.8462 36.0528 19.0528 35.8462 19.3077 35.8462H20.2308C20.4857 35.8462 20.6923 36.0528 20.6923 36.3077V37.2308C20.6923 37.4857 20.4857 37.6923 20.2308 37.6923H19.3077C19.0528 37.6923 18.8462 37.4857 18.8462 37.2308V36.3077Z"/>
<path fill-rule="evenodd" clip-rule="evenodd" d="M22.0769 34C22.3318 34 22.5385 34.2066 22.5385 34.4615V39.0769C22.5385 39.3318 22.3318 39.5385 22.0769 39.5385H17.4615C17.2066 39.5385 17 39.3318 17 39.0769V34.4615C17 34.2066 17.2066 34 17.4615 34H22.0769ZM18.3846 34.9231C18.1297 34.9231 17.9231 35.1297 17.9231 35.3846V38.1538C17.9231 38.4087 18.1297 38.6154 18.3846 38.6154H21.1538C21.4087 38.6154 21.6154 38.4087 21.6154 38.1538V35.3846C21.6154 35.1297 21.4087 34.9231 21.1538 34.9231H18.3846Z"/>
<path d="M25.3077 36.3077C25.3077 36.0528 25.5143 35.8462 25.7692 35.8462H26.6923C26.9472 35.8462 27.1538 36.0528 27.1538 36.3077V37.2308C27.1538 37.4857 26.9472 37.6923 26.6923 37.6923H25.7692C25.5143 37.6923 25.3077 37.4857 25.3077 37.2308V36.3077Z"/>
<path fill-rule="evenodd" clip-rule="evenodd" d="M28.5385 34C28.7934 34 29 34.2066 29 34.4615V39.0769C29 39.3318 28.7934 39.5385 28.5385 39.5385H23.9231C23.6682 39.5385 23.4615 39.3318 23.4615 39.0769V34.4615C23.4615 34.2066 23.6682 34 23.9231 34H28.5385ZM24.8462 34.9231C24.5913 34.9231 24.3846 35.1297 24.3846 35.3846V38.1538C24.3846 38.4087 24.5913 38.6154 24.8462 38.6154H27.6154C27.8703 38.6154 28.0769 38.4087 28.0769 38.1538V35.3846C28.0769 35.1297 27.8703 34.9231 27.6154 34.9231H24.8462Z"/>
<path d="M19.3077 42.3077C19.0528 42.3077 18.8462 42.5143 18.8462 42.7692V43.6923C18.8462 43.9472 19.0528 44.1538 19.3077 44.1538H20.2308C20.4857 44.1538 20.6923 43.9472 20.6923 43.6923V42.7692C20.6923 42.5143 20.4857 42.3077 20.2308 42.3077H19.3077Z"/>
<path fill-rule="evenodd" clip-rule="evenodd" d="M22.5385 40.9231C22.5385 40.6682 22.3318 40.4615 22.0769 40.4615H17.4615C17.2066 40.4615 17 40.6682 17 40.9231V45.5385C17 45.7934 17.2066 46 17.4615 46H22.0769C22.3318 46 22.5385 45.7934 22.5385 45.5385V40.9231ZM17.9231 41.8462C17.9231 41.5913 18.1297 41.3846 18.3846 41.3846H21.1538C21.4087 41.3846 21.6154 41.5913 21.6154 41.8462V44.6154C21.6154 44.8703 21.4087 45.0769 21.1538 45.0769H18.3846C18.1297 45.0769 17.9231 44.8703 17.9231 44.6154V41.8462Z"/>
<path d="M26.2308 42.7692C25.9759 42.7692 25.7692 42.9759 25.7692 43.2308C25.7692 43.4857 25.9759 43.6923 26.2308 43.6923C26.4857 43.6923 26.6923 43.4857 26.6923 43.2308C26.6923 42.9759 26.4857 42.7692 26.2308 42.7692Z"/>
<path fill-rule="evenodd" clip-rule="evenodd" d="M28.0769 40.9231C28.3318 40.9231 28.5385 41.1297 28.5385 41.3846V45.0769C28.5385 45.3318 28.3318 45.5385 28.0769 45.5385H24.3846C24.1297 45.5385 23.9231 45.3318 23.9231 45.0769V41.3846C23.9231 41.1297 24.1297 40.9231 24.3846 40.9231H28.0769ZM25.3077 41.8462C25.0528 41.8462 24.8462 42.0528 24.8462 42.3077V44.1538C24.8462 44.4087 25.0528 44.6154 25.3077 44.6154H27.1538C27.4087 44.6154 27.6154 44.4087 27.6154 44.1538V42.3077C27.6154 42.0528 27.4087 41.8462 27.1538 41.8462H25.3077Z"/>
<path fill-rule="evenodd" clip-rule="evenodd" d="M5 48C3.89543 48 3 48.8954 3 50V58C3 59.1046 3.89543 60 5 60H13C14.1046 60 15 59.1046 15 58V50C15 48.8954 14.1046 48 13 48H5ZM11 54L7 56V52L11 54Z"/>
</svg>
