<svg width="64" height="64" viewBox="0 0 64 64" xmlns="http://www.w3.org/2000/svg">
<path d="M5.08123 22.3075L1.24966 24.9253C-1.23943 22.4893 0.105776 17.2234 4.25426 13.1634C7.7832 9.70983 12.2039 8.24143 14.9777 9.37933L11.3615 11.0618C9.0773 12.1246 7.68732 14.4005 7.77105 16.9408C7.84244 19.1066 6.84063 21.1054 5.08123 22.3075Z"/>
<path d="M13.2681 21.9848C9.73911 25.4384 5.31842 26.9068 2.54457 25.7689L6.16082 24.0864C8.44501 23.0237 9.83499 20.7477 9.75126 18.2075C9.67987 16.0416 10.6817 14.0428 12.4411 12.8407L16.2726 10.223C18.7617 12.6589 17.4165 17.9249 13.2681 21.9848Z"/>
<path d="M14.7703 23.455C13.8001 24.4046 12.7635 25.219 11.6986 25.891H64C64 23.5943 62.0976 21.7326 59.7509 21.7326H34.256C33.0826 21.7326 32.1314 20.8017 32.1314 19.6533C32.1314 18.505 31.1802 17.5741 30.0069 17.5741H18.7621C17.9685 19.598 16.6202 21.6446 14.7703 23.455Z"/>
<path d="M31.0692 15.4949H19.384C19.6877 14.0088 19.6678 12.586 19.3019 11.3365H44.8789V13.4157C44.8789 15.7123 46.7813 17.5741 49.128 17.5741H64V21.7326C62.6397 20.4013 60.7946 19.6533 58.8708 19.6533H35.3183C34.7316 19.6533 34.256 19.1879 34.256 18.6137C34.256 16.8912 32.8292 15.4949 31.0692 15.4949Z"/>
<path fill-rule="evenodd" clip-rule="evenodd" d="M6.63658 27.9702C5.24098 28.2434 3.90004 28.249 2.70094 27.9702H2.38744V50.8416C2.38744 53.1382 4.28985 55 6.63658 55H16.1972V27.9702H6.63658ZM5.5743 30.0494C4.98761 30.0494 4.51201 30.5149 4.51201 31.089C4.51201 31.6632 4.98761 32.1286 5.5743 32.1286H7.69887C8.28555 32.1286 8.76116 31.6632 8.76116 31.089C8.76116 30.5149 8.28555 30.0494 7.69887 30.0494H5.5743ZM4.51201 35.2475C4.51201 34.6733 4.98761 34.2078 5.5743 34.2078H8.76116C9.34784 34.2078 9.82344 34.6733 9.82344 35.2475C9.82344 35.8216 9.34784 36.2871 8.76116 36.2871H5.5743C4.98761 36.2871 4.51201 35.8216 4.51201 35.2475ZM11.948 30.0494C11.3613 30.0494 10.8857 30.5149 10.8857 31.089C10.8857 31.6632 11.3613 32.1286 11.948 32.1286H13.0103C13.597 32.1286 14.0726 31.6632 14.0726 31.089C14.0726 30.5149 13.597 30.0494 13.0103 30.0494H11.948ZM11.948 35.2475C11.948 34.6733 12.4236 34.2078 13.0103 34.2078C13.597 34.2078 14.0726 34.6733 14.0726 35.2475C14.0726 35.8216 13.597 36.2871 13.0103 36.2871C12.4236 36.2871 11.948 35.8216 11.948 35.2475Z"/>
<path d="M47.0034 13.4157V11.3365H51.2526V15.4949H49.128C47.9546 15.4949 47.0034 14.564 47.0034 13.4157Z"/>
<path d="M57.6263 15.4949H53.3771V11.3365H57.6263V15.4949Z"/>
<path d="M64 13.4157V15.4949H59.7509V11.3365H61.8754C63.0488 11.3365 64 12.2674 64 13.4157Z"/>
<path d="M23.9787 51.4636C23.9787 51.6362 23.824 51.7761 23.6332 51.7761C23.4423 51.7761 23.2876 51.6362 23.2876 51.4636C23.2876 51.291 23.4423 51.1511 23.6332 51.1511C23.824 51.1511 23.9787 51.291 23.9787 51.4636Z"/>
<path d="M23.6332 50.7345C23.824 50.7345 23.9787 50.5946 23.9787 50.422V48.5472C23.9787 48.3747 23.824 48.2348 23.6332 48.2348C23.4423 48.2348 23.2876 48.3747 23.2876 48.5472V50.422C23.2876 50.5946 23.4423 50.7345 23.6332 50.7345Z"/>
<path d="M23.2348 31.4789C23.2348 31.2636 23.4131 31.089 23.6332 31.089C23.8532 31.089 24.0315 31.2636 24.0315 31.4789C24.0315 31.6942 23.8532 31.8687 23.6332 31.8687C23.4131 31.8687 23.2348 31.6942 23.2348 31.4789Z"/>
<path d="M23.6332 32.3885C23.4131 32.3885 23.2348 32.5631 23.2348 32.7784V35.1175C23.2348 35.3328 23.4131 35.5074 23.6332 35.5074C23.8532 35.5074 24.0315 35.3328 24.0315 35.1175V32.7784C24.0315 32.5631 23.8532 32.3885 23.6332 32.3885Z"/>
<path fill-rule="evenodd" clip-rule="evenodd" d="M18.3217 27.9702H64V52.9208C64 54.0691 63.0488 55 61.8754 55H18.3217V27.9702ZM21.1384 52.401C20.6078 52.401 20.2751 51.8826 20.5384 51.466L23.0332 47.5178C23.2984 47.098 23.9679 47.098 24.2332 47.5178L26.7279 51.466C26.9912 51.8826 26.6585 52.401 26.1279 52.401H21.1384ZM24.7365 39.9974C24.8905 40.1945 24.7409 40.4678 24.506 40.4678H22.7603C22.5254 40.4678 22.3758 40.1945 22.5298 39.9974C22.8161 39.6311 23.2049 39.4059 23.6332 39.4059C24.0614 39.4059 24.4502 39.6311 24.7365 39.9974ZM24.1392 43.5443C23.962 43.6234 23.7925 43.4566 23.7925 43.2445V41.1758C23.7925 40.9803 23.9352 40.8218 24.1112 40.8218H24.8976C25.0389 40.8218 25.1656 40.9248 25.1907 41.0793C25.2142 41.2245 25.2266 41.3752 25.2266 41.5298C25.2266 42.467 24.7711 43.2624 24.1392 43.5443ZM23.1551 40.8218C23.3311 40.8218 23.4738 40.9803 23.4738 41.1758V43.2445C23.4738 43.4566 23.3043 43.6234 23.1271 43.5443C22.4952 43.2624 22.0397 42.467 22.0397 41.5298C22.0397 41.3752 22.0521 41.2245 22.0756 41.0793C22.1007 40.9248 22.2274 40.8218 22.3687 40.8218H23.1551ZM21.721 41.5298C21.721 41.7253 20.941 41.8837 20.765 41.8837C20.589 41.8837 20.4463 41.7253 20.4463 41.5298C20.4463 41.3343 20.589 41.1758 20.765 41.1758C20.941 41.1758 21.721 41.3343 21.721 41.5298ZM25.5453 41.5298C25.5453 41.3343 26.3253 41.1758 26.5013 41.1758C26.6773 41.1758 26.82 41.3343 26.82 41.5298C26.82 41.7253 26.6773 41.8837 26.5013 41.8837C26.3253 41.8837 25.5453 41.7253 25.5453 41.5298ZM21.9772 40.4678C21.8892 40.6371 21.1423 40.3412 20.9899 40.2434C20.8375 40.1457 20.7852 39.9292 20.8733 39.7599C20.9613 39.5906 21.1562 39.5326 21.3086 39.6303C21.461 39.728 22.0652 40.2985 21.9772 40.4678ZM25.2891 42.5917C25.3771 42.4224 26.124 42.7184 26.2764 42.8161C26.4288 42.9139 26.4811 43.1304 26.3931 43.2997C26.305 43.469 26.1101 43.527 25.9577 43.4292C25.8053 43.3315 25.2011 42.761 25.2891 42.5917ZM21.9772 42.5917C22.0652 42.761 21.461 43.3315 21.3086 43.4292C21.1562 43.527 20.9613 43.469 20.8733 43.2997C20.7852 43.1304 20.8375 42.9139 20.9899 42.8161C21.1423 42.7184 21.8892 42.4224 21.9772 42.5917ZM25.2891 40.4678C25.2011 40.2985 25.8053 39.728 25.9577 39.6303C26.1101 39.5326 26.305 39.5906 26.3931 39.7599C26.4811 39.9292 26.4288 40.1457 26.2764 40.2434C26.124 40.3412 25.3771 40.6371 25.2891 40.4678ZM26.82 33.1682C26.82 34.8907 25.3932 36.2871 23.6332 36.2871C21.8731 36.2871 20.4463 34.8907 20.4463 33.1682C20.4463 31.4458 21.8731 30.0494 23.6332 30.0494C25.3932 30.0494 26.82 31.4458 26.82 33.1682ZM30.0069 30.0494C29.4202 30.0494 28.9446 30.5149 28.9446 31.089V51.8812C28.9446 52.4553 29.4202 52.9208 30.0069 52.9208C30.5935 52.9208 31.0692 52.4553 31.0692 51.8812V31.089C31.0692 30.5149 30.5935 30.0494 30.0069 30.0494ZM59.7509 31.089C59.7509 30.5149 60.2265 30.0494 60.8131 30.0494C61.3998 30.0494 61.8754 30.5149 61.8754 31.089V51.8812C61.8754 52.4553 61.3998 52.9208 60.8131 52.9208C60.2265 52.9208 59.7509 52.4553 59.7509 51.8812V31.089ZM50.1903 31.089H33.1937V35.2475H50.1903V31.089ZM33.1937 39.4059H54.4394V41.4851H33.1937V39.4059ZM45.9411 43.5643H33.1937V45.6435H45.9411V43.5643ZM33.1937 48.7624H52.3149V50.8416H33.1937V48.7624ZM56.564 48.7624H54.4394V50.8416H56.564V48.7624Z"/>
</svg>
