<svg width="64" height="64" viewBox="0 0 64 64" xmlns="http://www.w3.org/2000/svg">
<path d="M50.0104 3.84C50.0104 4.7489 41.9469 5.48571 32 5.48571C22.0531 5.48571 13.9896 4.7489 13.9896 3.84L14.74 1.09714C14.74 0.491208 22.4676 0 32 0C41.5324 0 49.26 0.491208 49.26 1.09714L50.0104 3.84Z"/>
<path d="M32 7.31429C42.9939 7.31429 51.9062 6.33187 51.9062 5.12L51.816 4.72213C53.091 4.95451 53.8021 5.21315 53.8021 5.48571L54.75 10.0571C54.75 11.572 44.5645 12.8 32 12.8C19.4355 12.8 9.25 11.572 9.25 10.0571L10.1979 5.48571C10.1979 5.21315 10.909 4.95451 12.184 4.72213L12.0937 5.12C12.0937 6.33187 21.0061 7.31429 32 7.31429Z"/>
<path d="M14.7528 53.4002L14.9375 54.5387C14.9375 55.9924 22.5766 57.6 32 57.6C41.4234 57.6 49.0625 55.9924 49.0625 54.5387L49.2472 53.4002L57.0867 54.4041C58.3044 54.56 58.3044 56.3678 57.0867 56.5237L32.1293 59.7195C32.0434 59.7305 31.9566 59.7305 31.8707 59.7195L6.91328 56.5237C5.69558 56.3678 5.69557 54.56 6.91328 54.4041L14.7528 53.4002Z"/>
<path d="M6.97768 58.6681L6.91328 58.6763C5.69557 58.8322 5.69558 60.64 6.91328 60.7959L31.8707 63.9918C31.9566 64.0028 32.0434 64.0028 32.1293 63.9918L57.0867 60.7959C58.3044 60.64 58.3044 58.8322 57.0867 58.6763L57.0223 58.6681L32.1293 61.8557C32.0434 61.8667 31.9566 61.8667 31.8707 61.8557L6.97768 58.6681Z"/>
<path fill-rule="evenodd" clip-rule="evenodd" d="M13.8855 21.936L15.8557 39.5272C20.2905 40.2599 25.8999 40.6974 32 40.6974C38.1001 40.6974 43.7095 40.2599 48.1443 39.5272L50.1145 21.936C45.4323 22.8834 39.0432 23.4667 32 23.4667C24.9568 23.4667 18.5677 22.8834 13.8855 21.936ZM28.1376 27.7333H30.7125C31.4236 27.7333 32 27.0966 32 26.3111C32 27.0966 32.5764 27.7333 33.2875 27.7333H35.8624C36.218 27.7333 36.5062 28.0517 36.5062 28.4445C36.5062 28.8372 36.7944 29.1556 37.1499 29.1556V28.4445C37.1499 27.659 36.5735 27.0222 35.8624 27.0222H33.2875C32.9319 27.0222 32.6437 26.7039 32.6437 26.3111C32.6437 25.9184 32.3555 25.6 32 25.6C31.6445 25.6 31.3563 25.9184 31.3563 26.3111C31.3563 26.7039 31.068 27.0222 30.7125 27.0222H28.1376C27.4265 27.0222 26.8501 27.659 26.8501 28.4445V29.1556C27.2056 29.1556 27.4938 28.8372 27.4938 28.4445C27.4938 28.0517 27.782 27.7333 28.1376 27.7333ZM26.2064 34.7296V34.8445L22.7838 32.9541C22.0721 32.561 22.0721 31.439 22.7838 31.046L26.2064 29.1556V29.2704C26.2064 29.6358 26.0194 29.9699 25.7235 30.1333L23.2076 31.523C22.8517 31.7195 22.8517 32.2805 23.2076 32.477L25.7235 33.8667C26.0194 34.0301 26.2064 34.3642 26.2064 34.7296ZM30.7125 36.2667H28.1376C27.782 36.2667 27.4938 35.9483 27.4938 35.5556C27.4938 35.1628 27.2056 34.8445 26.8501 34.8445V35.5556C26.8501 36.341 27.4265 36.9778 28.1376 36.9778H30.7125C31.068 36.9778 31.3563 37.2962 31.3563 37.6889C31.3563 38.0816 31.6445 38.4 32 38.4C32.3555 38.4 32.6437 38.0816 32.6437 37.6889C32.6437 37.2962 32.9319 36.9778 33.2875 36.9778H35.8624C36.5735 36.9778 37.1499 36.341 37.1499 35.5556V34.8445C36.7944 34.8445 36.5062 35.1628 36.5062 35.5556C36.5062 35.9483 36.218 36.2667 35.8624 36.2667H33.2875C32.5764 36.2667 32 36.9034 32 37.6889C32 36.9034 31.4236 36.2667 30.7125 36.2667ZM37.7936 34.8445V34.7296C37.7936 34.3642 37.9806 34.0301 38.2765 33.8667L40.7924 32.477C41.1483 32.2805 41.1483 31.7195 40.7924 31.523L38.2765 30.1333C37.9806 29.9699 37.7936 29.6358 37.7936 29.2704V29.1556L41.2162 31.046C41.9279 31.439 41.9279 32.561 41.2162 32.9541L37.7936 34.8445ZM30.0901 34.7822L35.5406 28.4445C34.924 28.4445 34.3345 28.724 33.9099 29.2178L28.4594 35.5556C29.076 35.5556 29.6655 35.276 30.0901 34.7822Z"/>
<path fill-rule="evenodd" clip-rule="evenodd" d="M17.375 53.0925L16.0804 41.5332C20.4792 42.2437 26.0025 42.6667 32 42.6667C37.9975 42.6667 43.5208 42.2437 47.9196 41.5332L46.625 53.0925C46.625 54.4037 40.0772 55.4667 32 55.4667C23.9228 55.4667 17.375 54.4037 17.375 53.0925ZM23.3333 44.8L26.9988 46.006C27.1573 46.0581 27.2632 46.1965 27.2632 46.3515C27.2632 46.5066 27.1573 46.6449 26.9988 46.6971L23.3333 47.903C23.3333 47.5925 23.5442 47.3152 23.8609 47.2091L26.4211 46.3515L23.8609 45.4939C23.5442 45.3878 23.3333 45.1105 23.3333 44.8ZM27.5439 47.3859C27.3888 47.3859 27.2632 47.5016 27.2632 47.6445C27.2632 47.7873 27.3888 47.903 27.5439 47.903H30.3509C30.5059 47.903 30.6316 47.7873 30.6316 47.6445C30.6316 47.5016 30.5059 47.3859 30.3509 47.3859H27.5439ZM35.5335 45.7739C35.3189 45.9052 35.2832 46.1288 35.4425 46.2899L35.2243 46.4996C35.0553 46.6621 34.8885 46.8224 34.7531 46.9514C34.6365 47.0342 34.5192 47.1303 34.4264 47.2332L34.4136 47.2475L34.398 47.2651C34.3873 47.2774 34.3774 47.2889 34.3688 47.2994L34.3656 47.3035L34.3577 47.3133L34.3492 47.3245L34.3396 47.3379L34.3362 47.3429L34.3335 47.3471L34.329 47.3541C34.3194 47.3697 34.3077 47.3912 34.2988 47.4153L34.2962 47.4225C34.2872 47.4496 34.2788 47.4871 34.2811 47.5297C34.2823 47.5513 34.2873 47.596 34.3142 47.6485C34.3255 47.6705 34.3407 47.6936 34.3608 47.717C34.3765 47.7353 34.3937 47.7521 34.4122 47.7675C34.4279 47.7804 34.4455 47.7932 34.4653 47.8056C34.4808 47.8153 34.4965 47.8242 34.5123 47.8321C34.5877 47.8698 34.6725 47.8916 34.7549 47.8997C34.8267 47.9063 34.8888 47.902 34.9302 47.8966L34.9434 47.8947L34.9561 47.8927L34.9639 47.8913C35.0011 47.8846 35.0327 47.8759 35.0575 47.8679L35.0634 47.8659C35.098 47.8543 35.1269 47.8414 35.1483 47.8307C35.1583 47.8256 35.1663 47.8212 35.1721 47.818C35.1924 47.8065 35.2099 47.795 35.2229 47.7858L35.2266 47.7831C35.2376 47.7752 35.2483 47.767 35.258 47.7592C35.2696 47.7498 35.2811 47.74 35.2918 47.7308L35.2962 47.7269L35.3111 47.7137C35.3263 47.7146 35.3416 47.7151 35.3571 47.7151C35.6387 47.7151 35.8776 47.6743 36.0809 47.6081C36.1635 47.6079 36.2538 47.6052 36.3489 47.6013L36.3545 47.6131C36.419 47.7428 36.5575 47.8123 36.6613 47.843C36.7528 47.87 36.8321 47.8728 36.867 47.8731C36.9393 47.8738 36.9961 47.8641 37.0125 47.8613C37.0376 47.8569 37.0587 47.8521 37.0727 47.8488C37.1552 47.829 37.2806 47.7866 37.3775 47.7533C37.4836 47.7169 37.5929 47.6784 37.692 47.6434C37.818 47.599 37.9282 47.5601 37.9939 47.5391C38.0457 47.5224 38.1342 47.4895 38.2345 47.4501C38.3554 47.4733 38.4882 47.4674 38.6105 47.4266C38.7631 47.3757 38.884 47.3168 38.9847 47.2435C39.0596 47.1889 39.121 47.125 39.146 47.0989L39.159 47.0855C39.1791 47.0644 39.2207 47.0208 39.4459 46.9433C39.5176 46.9186 39.5808 46.8832 39.6311 46.8394C39.6474 46.8253 39.6856 46.7905 39.7148 46.7388C39.7425 46.69 39.7928 46.5694 39.7047 46.4329C39.614 46.2923 39.4453 46.2399 39.3646 46.2227C39.284 46.2055 39.2172 46.2058 39.1904 46.2064C39.133 46.2076 39.0886 46.2152 39.0771 46.2172L39.0658 46.2192C39.0531 46.2216 39.0431 46.2239 39.0371 46.2252C39.0237 46.2283 39.0116 46.2315 39.0025 46.234L38.9873 46.2384C38.9725 46.2428 38.9564 46.2481 38.9449 46.2518C38.9195 46.2602 38.8852 46.2718 38.8471 46.2848C38.7699 46.3113 38.6668 46.3471 38.5638 46.383C38.4011 46.4398 38.2304 46.4998 38.1596 46.5248L38.1508 46.527C38.0889 46.5123 38.0333 46.5078 37.9934 46.5068C37.9193 46.505 37.8606 46.5141 37.8295 46.5199C37.7951 46.5263 37.7671 46.5339 37.7484 46.5395L37.7413 46.5416L37.7264 46.5464C37.7128 46.5452 37.7 46.5443 37.6879 46.5438C37.624 46.5176 37.5542 46.5009 37.4837 46.4939C37.4514 46.4907 37.4208 46.4897 37.3924 46.4902C37.4025 46.4742 37.4115 46.4591 37.4193 46.4449C37.433 46.4201 37.4528 46.3812 37.4647 46.3365C37.4706 46.3147 37.4788 46.2762 37.4751 46.2293C37.4718 46.1882 37.4559 46.0926 37.3528 46.0012C37.2974 45.952 37.2319 45.917 37.1635 45.8933C37.1597 45.8463 37.1415 45.7734 37.0724 45.6999L37.066 45.6933C37.1517 45.6096 37.2284 45.53 37.2825 45.4674C37.3089 45.4368 37.333 45.4066 37.3513 45.3793C37.3566 45.3714 37.3652 45.3582 37.3743 45.3415C37.3857 45.3202 37.3979 45.293 37.4057 45.2628L37.4064 45.2598C37.4107 45.242 37.4143 45.2201 37.4147 45.1955C37.415 45.1754 37.4136 45.1337 37.3935 45.0833C37.3794 45.0482 37.3569 45.0106 37.3215 44.9731C37.311 44.9619 37.2997 44.9512 37.2878 44.941L37.2807 44.9351L37.2757 44.9311L37.2717 44.9279L37.2637 44.9217C37.1952 44.8705 37.1097 44.8344 37.0177 44.8154L37.0123 44.8143C36.9308 44.7985 36.8551 44.798 36.801 44.8023L36.7862 44.8037C36.7519 44.8071 36.7211 44.8125 36.6947 44.8185C36.6592 44.8265 36.6287 44.8362 36.6044 44.8451L36.5996 44.8469C36.5701 44.858 36.5445 44.8701 36.5241 44.8806C36.5055 44.8904 36.4902 44.8994 36.4792 44.9061L36.4667 44.9139C36.4297 44.9377 36.3944 44.9651 36.3638 44.9907C36.3428 45.0083 36.324 45.025 36.3084 45.0392L36.3034 45.0438C36.255 45.0878 36.2018 45.1399 36.1477 45.1955C36.0452 45.3009 35.9306 45.4282 35.8301 45.5535C35.7212 45.644 35.6168 45.723 35.5335 45.7739ZM34.1809 52.8708C34.027 53.1543 33.7125 53.3333 33.3684 53.3333L34.8016 50.6929C34.9554 50.4094 35.27 50.2303 35.614 50.2303L34.1809 52.8708ZM35.0526 53.3333C35.3967 53.3333 35.7112 53.1543 35.8651 52.8708L37.2982 50.2303C36.9542 50.2303 36.6396 50.4094 36.4858 50.6929L35.0526 53.3333ZM37.2982 53.0748C37.2982 52.9319 37.4239 52.8162 37.5789 52.8162H40.386C40.541 52.8162 40.6667 52.9319 40.6667 53.0748C40.6667 53.2176 40.541 53.3333 40.386 53.3333H37.5789C37.4239 53.3333 37.2982 53.2176 37.2982 53.0748ZM30.1754 50.5751C30.1754 50.7655 29.9848 50.9199 29.7497 50.9199H28.8982C28.6631 50.9199 28.4725 51.0742 28.4725 51.2647C28.4725 51.4551 28.6631 51.6094 28.8982 51.6094H29.324C29.7942 51.6094 30.1754 51.9182 30.1754 52.299C30.1754 52.6798 29.7942 52.9886 29.324 52.9886C29.324 53.179 29.1334 53.3333 28.8982 53.3333V52.9886H28.0468C28.0468 52.7981 28.2374 52.6438 28.4725 52.6438H29.324C29.5591 52.6438 29.7497 52.4894 29.7497 52.299C29.7497 52.1086 29.5591 51.9542 29.324 51.9542H28.8982C28.428 51.9542 28.0468 51.6455 28.0468 51.2647C28.0468 50.8838 28.428 50.5751 28.8982 50.5751C28.8982 50.3847 29.0889 50.2303 29.324 50.2303V50.5751H30.1754ZM28.8982 52.1266H29.324V52.4714H28.8982V52.1266ZM28.8982 51.0923H29.324V51.437H28.8982V51.0923ZM24.2382 51.9418C24.0987 52.033 23.9558 52.1266 23.7895 52.1266C23.7895 51.7458 24.1707 51.437 24.6409 51.437C24.8506 51.437 25.057 51.4788 25.242 51.5587L25.6176 51.721C25.7101 51.7609 25.8133 51.7818 25.9181 51.7818C26.0029 51.7818 26.0818 51.7618 26.1482 51.7272C26.2061 51.697 26.2632 51.6597 26.3209 51.6219C26.4603 51.5306 26.6033 51.437 26.7696 51.437C26.7696 51.8179 26.3884 52.1266 25.9181 52.1266C25.7085 52.1266 25.5021 52.0848 25.3171 52.0049L24.9415 51.8427C24.849 51.8027 24.7458 51.7818 24.6409 51.7818C24.5562 51.7818 24.4772 51.8019 24.4109 51.8365C24.353 51.8666 24.2959 51.904 24.2382 51.9418Z"/>
<path d="M28.1549 21.4386C26.7737 21.396 25.428 21.3307 24.1267 21.2447L27.3077 14.8597C28.6611 14.9026 30.0473 14.9273 31.4588 14.9324L28.1549 21.4386Z"/>
<path d="M23.5242 14.6876L20.4136 20.9313C19.258 20.8113 18.1513 20.6739 17.1014 20.5207L20.0585 14.4317C21.1757 14.5309 22.3328 14.6165 23.5242 14.6876Z"/>
<path d="M16.8482 14.0967L13.9874 19.9873C13.8773 19.9653 13.768 19.943 13.6598 19.9206L12.9437 13.5275C14.1526 13.7379 15.4588 13.9285 16.8482 14.0967Z"/>
<path d="M35.8163 14.8848C37.0686 14.8527 38.2947 14.805 39.489 14.7428L36.8752 21.4024C35.4412 21.4591 33.9656 21.4912 32.4587 21.4966L35.8163 14.8848Z"/>
<path d="M40.6834 21.1881L43.3141 14.4856C44.4355 14.3924 45.5187 14.2857 46.558 14.1667L44.6794 20.8109C43.4094 20.959 42.0736 21.0855 40.6834 21.1881Z"/>
<path d="M47.9668 20.3563C48.8 20.2211 49.5926 20.0755 50.3402 19.9206L51.0563 13.5275C50.6614 13.5962 50.2561 13.6628 49.841 13.7272L47.9668 20.3563Z"/>
</svg>
