<svg width="64" height="64" viewBox="0 0 64 64" xmlns="http://www.w3.org/2000/svg">
<path d="M48.625 5.6C48.625 6.4521 41.1817 7.14286 32 7.14286C22.8183 7.14286 15.375 6.4521 15.375 5.6L16.0677 3.02857C16.0677 2.46051 23.2008 2 32 2C40.7992 2 47.9323 2.46051 47.9323 3.02857L48.625 5.6Z"/>
<path d="M32 8.85714C42.1482 8.85714 50.375 7.93613 50.375 6.8L50.2917 6.427C51.4686 6.64485 52.125 6.88732 52.125 7.14286L53 11.4286C53 12.8487 43.598 14 32 14C20.402 14 11 12.8487 11 11.4286L11.875 7.14286C11.875 6.88732 12.5314 6.64485 13.7083 6.427L13.625 6.8C13.625 7.93613 21.8518 8.85714 32 8.85714Z"/>
<path d="M16.0795 52.0627L16.25 53.13C16.25 54.4929 23.3015 56 32 56C40.6985 56 47.75 54.4929 47.75 53.13L47.9205 52.0627L55.157 53.0038C56.281 53.15 56.281 54.8448 55.157 54.991L32.1194 57.9871C32.0401 57.9974 31.9599 57.9974 31.8806 57.9871L8.84303 54.991C7.71899 54.8448 7.71899 53.15 8.84302 53.0038L16.0795 52.0627Z"/>
<path d="M8.90247 57.0013L8.84302 57.009C7.71899 57.1552 7.71899 58.85 8.84303 58.9962L31.8806 61.9923C31.9599 62.0026 32.0401 62.0026 32.1194 61.9923L55.157 58.9962C56.281 58.85 56.281 57.1552 55.157 57.009L55.0975 57.0013L32.1194 59.9897C32.0401 60 31.9599 60 31.8806 59.9897L8.90247 57.0013Z"/>
<path fill-rule="evenodd" clip-rule="evenodd" d="M15.2789 22.565L17.0976 39.0568C21.1912 39.7436 26.3692 40.1538 32 40.1538C37.6309 40.1538 42.8088 39.7436 46.9024 39.0568L48.7211 22.565C44.3991 23.4531 38.5014 24 32 24C25.4986 24 19.6009 23.4531 15.2789 22.565ZM28.4347 28H30.8116C31.4679 28 32 27.403 32 26.6667C32 27.403 32.5321 28 33.1884 28H35.5653C35.8935 28 36.1595 28.2985 36.1595 28.6667C36.1595 29.0349 36.4256 29.3333 36.7538 29.3333V28.6667C36.7538 27.9303 36.2217 27.3333 35.5653 27.3333H33.1884C32.8603 27.3333 32.5942 27.0349 32.5942 26.6667C32.5942 26.2985 32.3282 26 32 26C31.6718 26 31.4058 26.2985 31.4058 26.6667C31.4058 27.0349 31.1397 27.3333 30.8116 27.3333H28.4347C27.7783 27.3333 27.2462 27.9303 27.2462 28.6667V29.3333C27.5744 29.3333 27.8405 29.0349 27.8405 28.6667C27.8405 28.2985 28.1065 28 28.4347 28ZM26.652 34.559V34.6667L23.4927 32.8944C22.8358 32.5259 22.8358 31.4741 23.4927 31.1056L26.652 29.3333V29.441C26.652 29.7836 26.4795 30.0968 26.2064 30.25L23.8839 31.5528C23.5554 31.7371 23.5554 32.263 23.8839 32.4472L26.2064 33.75C26.4795 33.9032 26.652 34.2164 26.652 34.559ZM30.8116 36H28.4347C28.1065 36 27.8405 35.7015 27.8405 35.3333C27.8405 34.9651 27.5744 34.6667 27.2462 34.6667V35.3333C27.2462 36.0697 27.7783 36.6667 28.4347 36.6667H30.8116C31.1397 36.6667 31.4058 36.9651 31.4058 37.3333C31.4058 37.7015 31.6718 38 32 38C32.3282 38 32.5942 37.7015 32.5942 37.3333C32.5942 36.9651 32.8603 36.6667 33.1884 36.6667H35.5653C36.2217 36.6667 36.7538 36.0697 36.7538 35.3333V34.6667C36.4256 34.6667 36.1595 34.9651 36.1595 35.3333C36.1595 35.7015 35.8935 36 35.5653 36H33.1884C32.5321 36 32 36.597 32 37.3333C32 36.597 31.4679 36 30.8116 36ZM37.348 34.6667V34.559C37.348 34.2164 37.5205 33.9032 37.7936 33.75L40.1161 32.4472C40.4445 32.263 40.4445 31.7371 40.1161 31.5528L37.7936 30.25C37.5205 30.0968 37.348 29.7836 37.348 29.441V29.3333L40.5073 31.1056C41.1642 31.4741 41.1642 32.5259 40.5073 32.8944L37.348 34.6667ZM30.237 34.6083L35.2682 28.6667C34.6991 28.6667 34.1549 28.9288 33.763 29.3917L28.7318 35.3333C29.3009 35.3333 29.8451 35.0712 30.237 34.6083Z"/>
<path fill-rule="evenodd" clip-rule="evenodd" d="M18.5 51.7742L17.3049 40.9373C21.3654 41.6035 26.4638 42 32 42C37.5362 42 42.6346 41.6035 46.6951 40.9373L45.5 51.7742C45.5 53.0035 39.4558 54 32 54C24.5442 54 18.5 53.0035 18.5 51.7742ZM24 44L27.3835 45.1306C27.5299 45.1795 27.6275 45.3092 27.6275 45.4545C27.6275 45.5999 27.5299 45.7296 27.3835 45.7785L24 46.9091C24 46.618 24.1946 46.358 24.487 46.2585L26.8502 45.4545L24.487 44.6505C24.1946 44.5511 24 44.2911 24 44ZM27.8866 46.4242C27.7435 46.4242 27.6275 46.5328 27.6275 46.6667C27.6275 46.8006 27.7435 46.9091 27.8866 46.9091H30.4777C30.6208 46.9091 30.7368 46.8006 30.7368 46.6667C30.7368 46.5328 30.6208 46.4242 30.4777 46.4242H27.8866ZM35.2617 44.9131C35.0636 45.0361 35.0307 45.2458 35.1777 45.3968L34.9763 45.5934C34.8202 45.7457 34.6663 45.896 34.5413 46.0169C34.4337 46.0946 34.3254 46.1847 34.2398 46.2811L34.228 46.2945L34.2136 46.311C34.2037 46.3225 34.1946 46.3334 34.1866 46.3432L34.1836 46.347L34.1764 46.3562L34.1685 46.3667L34.1597 46.3793L34.1565 46.384L34.154 46.3879L34.1499 46.3944C34.141 46.4091 34.1302 46.4292 34.122 46.4519L34.1196 46.4586C34.1112 46.484 34.1035 46.5192 34.1056 46.5591C34.1067 46.5793 34.1113 46.6213 34.1362 46.6705C34.1467 46.6911 34.1606 46.7128 34.1792 46.7347C34.1937 46.7518 34.2096 46.7676 34.2266 46.782C34.2412 46.7941 34.2574 46.8061 34.2756 46.8177C34.29 46.8269 34.3045 46.8351 34.319 46.8426C34.3886 46.8779 34.4669 46.8984 34.543 46.9059C34.6092 46.9121 34.6666 46.9081 34.7048 46.903L34.717 46.9013L34.7287 46.8994L34.7359 46.8981C34.7702 46.8918 34.7994 46.8837 34.8223 46.8761L34.8278 46.8743C34.8597 46.8634 34.8864 46.8513 34.9061 46.8412C34.9153 46.8365 34.9228 46.8324 34.9281 46.8293C34.9469 46.8186 34.963 46.8078 34.975 46.7992L34.9784 46.7967C34.9886 46.7893 34.9984 46.7815 35.0074 46.7742C35.0181 46.7654 35.0287 46.7563 35.0386 46.7476L35.0426 46.744L35.0564 46.7316C35.0704 46.7325 35.0846 46.7329 35.0989 46.7329C35.3588 46.7329 35.5793 46.6946 35.767 46.6326C35.8432 46.6324 35.9266 46.6299 36.0144 46.6263L36.0195 46.6373C36.0791 46.7588 36.207 46.824 36.3027 46.8528C36.3872 46.8781 36.4604 46.8807 36.4926 46.881C36.5594 46.8817 36.6117 46.8726 36.6269 46.8699C36.6501 46.8659 36.6696 46.8614 36.6825 46.8582C36.7586 46.8397 36.8744 46.7999 36.9638 46.7688C37.0618 46.7346 37.1627 46.6985 37.2542 46.6657C37.3704 46.6241 37.4722 46.5876 37.5328 46.5679C37.5807 46.5523 37.6624 46.5214 37.7549 46.4845C37.8666 46.5063 37.9891 46.5007 38.102 46.4625C38.2429 46.4147 38.3545 46.3595 38.4474 46.2907C38.5166 46.2396 38.5732 46.1797 38.5963 46.1552L38.6083 46.1427C38.6269 46.1229 38.6652 46.082 38.8732 46.0093C38.9393 45.9862 38.9977 45.953 39.0441 45.9119C39.0591 45.8987 39.0944 45.8661 39.1214 45.8176C39.1469 45.7718 39.1933 45.6588 39.112 45.5308C39.0283 45.399 38.8726 45.3499 38.7981 45.3338C38.7236 45.3176 38.662 45.318 38.6373 45.3185C38.5843 45.3196 38.5434 45.3268 38.5327 45.3286L38.5223 45.3305C38.5106 45.3328 38.5013 45.3349 38.4958 45.3362C38.4834 45.339 38.4722 45.342 38.4639 45.3444L38.4498 45.3485C38.4362 45.3526 38.4213 45.3575 38.4107 45.3611C38.3872 45.3689 38.3556 45.3798 38.3204 45.392C38.2491 45.4168 38.154 45.4504 38.0589 45.484C37.9087 45.5373 37.7511 45.5936 37.6858 45.617L37.6776 45.619C37.6206 45.6053 37.5692 45.6011 37.5324 45.6002C37.464 45.5984 37.4098 45.607 37.381 45.6124C37.3493 45.6184 37.3235 45.6256 37.3062 45.6308L37.2997 45.6328L37.2859 45.6372C37.2734 45.6361 37.2615 45.6353 37.2504 45.6348C37.1913 45.6103 37.1269 45.5946 37.0619 45.5881C37.0321 45.5851 37.0038 45.5841 36.9776 45.5845C36.9869 45.5695 36.9953 45.5554 37.0025 45.5421C37.0151 45.5189 37.0334 45.4823 37.0444 45.4405C37.0498 45.42 37.0574 45.3839 37.0539 45.34C37.0509 45.3015 37.0362 45.2118 36.9411 45.1261C36.8899 45.08 36.8294 45.0472 36.7663 45.025C36.7628 44.9809 36.746 44.9126 36.6822 44.8436L36.6763 44.8374C36.7554 44.759 36.8262 44.6844 36.8762 44.6257C36.9005 44.597 36.9228 44.5687 36.9397 44.5431C36.9446 44.5356 36.9525 44.5233 36.9609 44.5076C36.9714 44.4877 36.9827 44.4622 36.9898 44.4338L36.9905 44.431C36.9945 44.4143 36.9978 44.3938 36.9982 44.3708C36.9984 44.352 36.9972 44.3129 36.9786 44.2656C36.9656 44.2327 36.9448 44.1974 36.9122 44.1623C36.9024 44.1518 36.892 44.1418 36.881 44.1322L36.8745 44.1267L36.8699 44.1229L36.8662 44.1199L36.8588 44.1141C36.7956 44.0661 36.7166 44.0322 36.6317 44.0144L36.6267 44.0134C36.5515 43.9986 36.4816 43.9981 36.4317 44.0022L36.4181 44.0034C36.3864 44.0066 36.358 44.0117 36.3335 44.0173C36.3008 44.0248 36.2726 44.0339 36.2502 44.0423L36.2458 44.0439C36.2185 44.0544 36.1949 44.0657 36.1761 44.0756C36.1589 44.0847 36.1448 44.0932 36.1347 44.0995L36.1231 44.1068C36.0889 44.1291 36.0563 44.1548 36.0281 44.1788C36.0087 44.1953 35.9914 44.211 35.977 44.2242L35.9723 44.2285C35.9277 44.2698 35.8786 44.3186 35.8286 44.3708C35.734 44.4696 35.6283 44.5889 35.5355 44.7064C35.435 44.7912 35.3386 44.8653 35.2617 44.9131ZM34.0131 51.5663C33.8711 51.8321 33.5808 52 33.2632 52L34.5861 49.5246C34.7281 49.2588 35.0184 49.0909 35.336 49.0909L34.0131 51.5663ZM34.8178 52C35.1354 52 35.4258 51.8321 35.5678 51.5663L36.8907 49.0909C36.5731 49.0909 36.2828 49.2588 36.1407 49.5246L34.8178 52ZM36.8907 51.7576C36.8907 51.6237 37.0067 51.5152 37.1498 51.5152H39.7409C39.884 51.5152 40 51.6237 40 51.7576C40 51.8915 39.884 52 39.7409 52H37.1498C37.0067 52 36.8907 51.8915 36.8907 51.7576ZM30.3158 49.4141C30.3158 49.5927 30.1398 49.7374 29.9228 49.7374H29.1368C28.9198 49.7374 28.7439 49.8821 28.7439 50.0606C28.7439 50.2391 28.9198 50.3838 29.1368 50.3838H29.5298C29.9639 50.3838 30.3158 50.6733 30.3158 51.0303C30.3158 51.3873 29.9639 51.6768 29.5298 51.6768C29.5298 51.8553 29.3539 52 29.1368 52V51.6768H28.3509C28.3509 51.4983 28.5268 51.3535 28.7439 51.3535H29.5298C29.7469 51.3535 29.9228 51.2088 29.9228 51.0303C29.9228 50.8518 29.7469 50.7071 29.5298 50.7071H29.1368C28.7028 50.7071 28.3509 50.4176 28.3509 50.0606C28.3509 49.7036 28.7028 49.4141 29.1368 49.4141C29.1368 49.2356 29.3128 49.0909 29.5298 49.0909V49.4141H30.3158ZM29.1368 50.8687H29.5298V51.1919H29.1368V50.8687ZM29.1368 49.899H29.5298V50.2222H29.1368V49.899ZM24.8352 50.6954C24.7065 50.7809 24.5745 50.8687 24.4211 50.8687C24.4211 50.5117 24.7729 50.2222 25.207 50.2222C25.4005 50.2222 25.5911 50.2614 25.7618 50.3363L26.1086 50.4884C26.1939 50.5259 26.2892 50.5455 26.386 50.5455C26.4642 50.5455 26.5371 50.5267 26.5983 50.4942C26.6518 50.466 26.7045 50.4309 26.7577 50.3955C26.8864 50.31 27.0184 50.2222 27.1719 50.2222C27.1719 50.5793 26.82 50.8687 26.386 50.8687C26.1925 50.8687 26.0019 50.8295 25.8312 50.7546L25.4844 50.6025C25.399 50.565 25.3038 50.5455 25.207 50.5455C25.1288 50.5455 25.0559 50.5643 24.9947 50.5967C24.9412 50.625 24.8885 50.66 24.8352 50.6954Z"/>
<path d="M28.4506 22.0987C27.1758 22.0587 25.9336 21.9975 24.7323 21.9169L27.6686 15.9309C28.9179 15.9712 30.1975 15.9944 31.5005 15.9991L28.4506 22.0987Z"/>
<path d="M24.1762 15.7697L21.3049 21.6231C20.2381 21.5106 19.2166 21.3818 18.2475 21.2382L20.9771 15.5297C22.0083 15.6227 23.0765 15.703 24.1762 15.7697Z"/>
<path d="M18.0137 15.2157L15.373 20.7381C15.2713 20.7174 15.1705 20.6966 15.0705 20.6755L14.4096 14.682C15.5254 14.8793 16.7312 15.058 18.0137 15.2157Z"/>
<path d="M35.5228 15.9545C36.6787 15.9244 37.8105 15.8797 38.913 15.8213L36.5002 22.0647C35.1765 22.1179 33.8144 22.148 32.4235 22.1531L35.5228 15.9545Z"/>
<path d="M40.0155 21.8638L42.4438 15.5803C43.4789 15.4929 44.4788 15.3928 45.4381 15.2812L43.7041 21.5103C42.5318 21.6491 41.2987 21.7676 40.0155 21.8638Z"/>
<path d="M46.7386 21.084C47.5077 20.9573 48.2393 20.8208 48.9295 20.6755L49.5904 14.682C49.2259 14.7464 48.8518 14.8089 48.4686 14.8693L46.7386 21.084Z"/>
</svg>
