<svg width="64" height="64" viewBox="0 0 64 64" xmlns="http://www.w3.org/2000/svg">
<path fill-rule="evenodd" clip-rule="evenodd" d="M64 14.6264C64 19.6701 61.3372 24.0737 57.3793 26.4298V28.2527C57.3793 29.8586 57.3793 30.6616 56.8945 31.1605C56.4097 31.6593 55.6295 31.6593 54.069 31.6593H47.4483C45.8878 31.6593 45.1075 31.6593 44.6227 31.1605C44.1379 30.6616 44.1379 29.8586 44.1379 28.2527V26.4298C40.1801 24.0737 37.5172 19.6701 37.5172 14.6264C37.5172 7.10074 43.4456 1 50.7586 1C58.0716 1 64 7.10074 64 14.6264ZM49.7096 21.4396C49.5642 21.6981 49.3547 21.9138 49.1034 22.0633V28.2527H47.4483V22.0633C46.9535 21.7688 46.6207 21.2184 46.6207 20.5879C46.6207 19.6472 47.3617 18.8846 48.2759 18.8846C48.8885 18.8846 49.4234 19.2271 49.7096 19.7363H51.8076C52.0938 19.2271 52.6287 18.8846 53.2414 18.8846C54.1555 18.8846 54.8966 19.6472 54.8966 20.5879C54.8966 21.2184 54.5637 21.7688 54.069 22.0633V28.2527H52.4138V22.0633C52.1625 21.9138 51.953 21.6981 51.8076 21.4396H49.7096Z"/>
<path d="M45.7931 35.0659C44.879 35.0659 44.1379 35.8285 44.1379 36.7692V38.4725L50.7586 35.0659H45.7931Z"/>
<path d="M44.1379 41.8791L56.7173 35.4065C57.1193 35.7173 57.3793 36.212 57.3793 36.7692V38.4725L44.7999 44.9451C44.3979 44.6343 44.1379 44.1396 44.1379 43.5824V41.8791Z"/>
<path d="M57.3793 43.5824V41.8791L50.7586 45.2857H55.7241C56.6383 45.2857 57.3793 44.5231 57.3793 43.5824Z"/>
<path fill-rule="evenodd" clip-rule="evenodd" d="M41.931 34.2143V43.5824C41.931 44.8426 42.5216 45.9791 43.4529 46.6991C43.6596 46.8589 43.8917 46.9797 44.1379 47.0574V63H30.8966V34.2143H41.931ZM37.3333 51.9286H35.3103V58.5714H39.7241V54.558C39.7241 54.2523 39.4771 54.0045 39.1724 54.0045H38.9885C38.3791 54.0045 37.8851 53.5088 37.8851 52.8973V52.4821C37.8851 52.1764 37.638 51.9286 37.3333 51.9286ZM38.2529 53.0357V52.3437L39.3563 53.5893H38.8046C38.4999 53.5893 38.2529 53.3414 38.2529 53.0357Z"/>
<path fill-rule="evenodd" clip-rule="evenodd" d="M41.931 32V27.6277C40.258 26.4313 38.8287 24.9052 37.7309 23.1429H0V32H41.931ZM8.77241 29.7857H3.75172C2.89854 29.7857 2.2069 29.1248 2.2069 28.3095C2.2069 27.4942 2.89854 26.8333 3.75172 26.8333C3.79549 26.8333 3.83884 26.8351 3.88168 26.8385C4.19826 25.9758 5.05801 25.3571 6.06897 25.3571C7.34874 25.3571 8.38621 26.3485 8.38621 27.5714H8.77241C9.4123 27.5714 9.93103 28.0671 9.93103 28.6786C9.93103 29.29 9.4123 29.7857 8.77241 29.7857Z"/>
<path fill-rule="evenodd" clip-rule="evenodd" d="M35.3139 14.2857C35.3115 14.399 35.3103 14.5126 35.3103 14.6264C35.3103 16.8635 35.7633 18.9953 36.5817 20.9286H0V17.6071C0 15.7728 1.48209 14.2857 3.31034 14.2857H35.3139ZM4.41379 17.6071C4.41379 18.2186 3.91976 18.7143 3.31034 18.7143C2.70093 18.7143 2.2069 18.2186 2.2069 17.6071C2.2069 16.9957 2.70093 16.5 3.31034 16.5C3.91976 16.5 4.41379 16.9957 4.41379 17.6071ZM7.72414 18.7143C8.33356 18.7143 8.82759 18.2186 8.82759 17.6071C8.82759 16.9957 8.33356 16.5 7.72414 16.5C7.11472 16.5 6.62069 16.9957 6.62069 17.6071C6.62069 18.2186 7.11472 18.7143 7.72414 18.7143ZM13.2414 17.6071C13.2414 18.2186 12.7473 18.7143 12.1379 18.7143C11.5285 18.7143 11.0345 18.2186 11.0345 17.6071C11.0345 16.9957 11.5285 16.5 12.1379 16.5C12.7473 16.5 13.2414 16.9957 13.2414 17.6071Z"/>
<path d="M0.969578 35.1871C0 36.1599 0 37.7257 0 40.8571C0 43.9886 0 45.5544 0.969578 46.5272C1.93916 47.5 3.49967 47.5 6.62069 47.5C9.74171 47.5 11.3022 47.5 12.2718 46.5272C13.2414 45.5544 13.2414 43.9886 13.2414 40.8571C13.2414 37.7257 13.2414 36.1599 12.2718 35.1871C11.3022 34.2143 9.74171 34.2143 6.62069 34.2143C3.49967 34.2143 1.93916 34.2143 0.969578 35.1871Z"/>
<path d="M22.069 49.7143C18.4125 49.7143 15.4483 52.6884 15.4483 56.3571C15.4483 60.0259 18.4125 63 22.069 63C25.7255 63 28.6897 60.0259 28.6897 56.3571C28.6897 52.6884 25.7255 49.7143 22.069 49.7143Z"/>
<path fill-rule="evenodd" clip-rule="evenodd" d="M51.7015 49.8352C52.1107 49.7558 52.5333 49.7143 52.9655 49.7143C53.3978 49.7143 53.8203 49.7558 54.2295 49.8352L54.5667 51.6397C55.1873 51.8517 55.7526 52.1835 56.2353 52.6076L57.9628 51.9979C58.2359 52.3137 58.4831 52.6601 58.6992 53.0357C58.9153 53.4113 59.0907 53.7993 59.2268 54.1945L57.8376 55.39C57.8989 55.7029 57.931 56.0262 57.931 56.3571C57.931 56.688 57.8989 57.0114 57.8376 57.3242L59.2268 58.5198C59.0907 58.915 58.9153 59.303 58.6992 59.6786C58.4831 60.0542 58.2359 60.4006 57.9628 60.7164L56.2353 60.1067C55.7526 60.5308 55.1873 60.8626 54.5667 61.0746L54.2295 62.8791C53.8203 62.9584 53.3978 63 52.9655 63C52.5333 63 52.1107 62.9584 51.7015 62.8791L51.3643 61.0746C50.7438 60.8626 50.1784 60.5308 49.6957 60.1067L47.9682 60.7164C47.6951 60.4006 47.448 60.0542 47.2318 59.6786C47.0157 59.303 46.8403 58.915 46.7042 58.5198L48.0935 57.3242C48.0322 57.0114 48 56.688 48 56.3571C48 56.0262 48.0322 55.7029 48.0935 55.39L46.7042 54.1945C46.8403 53.7993 47.0157 53.4113 47.2318 53.0357C47.448 52.6601 47.6951 52.3137 47.9682 51.9979L49.6957 52.6076C50.1784 52.1835 50.7438 51.8517 51.3643 51.6397L51.7015 49.8352ZM55.4483 56.3571C55.4483 57.7329 54.3367 58.8482 52.9655 58.8482C51.5943 58.8482 50.4828 57.7329 50.4828 56.3571C50.4828 54.9814 51.5943 53.8661 52.9655 53.8661C54.3367 53.8661 55.4483 54.9814 55.4483 56.3571Z"/>
<path d="M17.4854 36.7692C17.4854 36.487 17.7134 36.2582 17.9947 36.2582H19.0133C19.2945 36.2582 19.5225 36.487 19.5225 36.7692V37.7912C19.5225 38.0734 19.2945 38.3022 19.0133 38.3022H17.9947C17.7134 38.3022 17.4854 38.0734 17.4854 37.7912V36.7692Z"/>
<path fill-rule="evenodd" clip-rule="evenodd" d="M21.0504 34.2143C21.3317 34.2143 21.5597 34.4431 21.5597 34.7253V39.8352C21.5597 40.1174 21.3317 40.3461 21.0504 40.3461H15.9576C15.6763 40.3461 15.4483 40.1174 15.4483 39.8352V34.7253C15.4483 34.4431 15.6763 34.2143 15.9576 34.2143H21.0504ZM16.9761 35.2363C16.6949 35.2363 16.4668 35.465 16.4668 35.7472V38.8132C16.4668 39.0954 16.6949 39.3242 16.9761 39.3242H20.0318C20.3131 39.3242 20.5411 39.0954 20.5411 38.8132V35.7472C20.5411 35.465 20.3131 35.2363 20.0318 35.2363H16.9761Z"/>
<path d="M24.6154 36.7692C24.6154 36.487 24.8434 36.2582 25.1247 36.2582H26.1432C26.4245 36.2582 26.6525 36.487 26.6525 36.7692V37.7912C26.6525 38.0734 26.4245 38.3022 26.1432 38.3022H25.1247C24.8434 38.3022 24.6154 38.0734 24.6154 37.7912V36.7692Z"/>
<path fill-rule="evenodd" clip-rule="evenodd" d="M28.1804 34.2143C28.4616 34.2143 28.6897 34.4431 28.6897 34.7253V39.8352C28.6897 40.1174 28.4616 40.3461 28.1804 40.3461H23.0875C22.8063 40.3461 22.5782 40.1174 22.5782 39.8352V34.7253C22.5782 34.4431 22.8063 34.2143 23.0875 34.2143H28.1804ZM24.1061 35.2363C23.8248 35.2363 23.5968 35.465 23.5968 35.7472V38.8132C23.5968 39.0954 23.8248 39.3242 24.1061 39.3242H27.1618C27.4431 39.3242 27.6711 39.0954 27.6711 38.8132V35.7472C27.6711 35.465 27.4431 35.2363 27.1618 35.2363H24.1061Z"/>
<path d="M17.9947 43.4121C17.7134 43.4121 17.4854 43.6409 17.4854 43.9231V44.9451C17.4854 45.2273 17.7134 45.456 17.9947 45.456H19.0133C19.2945 45.456 19.5225 45.2273 19.5225 44.9451V43.9231C19.5225 43.6409 19.2945 43.4121 19.0133 43.4121H17.9947Z"/>
<path fill-rule="evenodd" clip-rule="evenodd" d="M21.5597 41.8791C21.5597 41.5969 21.3317 41.3681 21.0504 41.3681H15.9576C15.6763 41.3681 15.4483 41.5969 15.4483 41.8791V46.989C15.4483 47.2712 15.6763 47.5 15.9576 47.5H21.0504C21.3317 47.5 21.5597 47.2712 21.5597 46.989V41.8791ZM16.4668 42.9011C16.4668 42.6189 16.6949 42.3901 16.9761 42.3901H20.0318C20.3131 42.3901 20.5411 42.6189 20.5411 42.9011V45.967C20.5411 46.2492 20.3131 46.478 20.0318 46.478H16.9761C16.6949 46.478 16.4668 46.2492 16.4668 45.967V42.9011Z"/>
<path d="M25.634 43.9231C25.3527 43.9231 25.1247 44.1519 25.1247 44.4341C25.1247 44.7163 25.3527 44.9451 25.634 44.9451C25.9152 44.9451 26.1432 44.7163 26.1432 44.4341C26.1432 44.1519 25.9152 43.9231 25.634 43.9231Z"/>
<path fill-rule="evenodd" clip-rule="evenodd" d="M27.6711 41.8791C27.9524 41.8791 28.1804 42.1079 28.1804 42.3901V46.478C28.1804 46.7602 27.9524 46.989 27.6711 46.989H23.5968C23.3155 46.989 23.0875 46.7602 23.0875 46.478V42.3901C23.0875 42.1079 23.3155 41.8791 23.5968 41.8791H27.6711ZM24.6154 42.9011C24.3341 42.9011 24.1061 43.1299 24.1061 43.4121V45.456C24.1061 45.7383 24.3341 45.967 24.6154 45.967H26.6525C26.9338 45.967 27.1618 45.7383 27.1618 45.456V43.4121C27.1618 43.1299 26.9338 42.9011 26.6525 42.9011H24.6154Z"/>
<path fill-rule="evenodd" clip-rule="evenodd" d="M2.2069 49.7143C0.988062 49.7143 0 50.7057 0 51.9286V60.7857C0 62.0086 0.988062 63 2.2069 63H11.0345C12.2533 63 13.2414 62.0086 13.2414 60.7857V51.9286C13.2414 50.7057 12.2533 49.7143 11.0345 49.7143H2.2069ZM8.82759 56.3571L4.41379 58.5714V54.1429L8.82759 56.3571Z"/>
</svg>
