<svg width="64" height="64" viewBox="0 0 64 64" xmlns="http://www.w3.org/2000/svg">
<path d="M7.60486 23.1503L4.13251 25.5405C1.87677 23.3163 3.09586 18.5083 6.85542 14.8014C10.0535 11.6481 14.0598 10.3074 16.5736 11.3463L13.2963 12.8825C11.2263 13.8529 9.96664 15.9309 10.0425 18.2503C10.1072 20.2278 9.19932 22.0528 7.60486 23.1503Z"/>
<path d="M15.0242 22.8557C11.8261 26.009 7.81982 27.3497 5.30602 26.3107L8.58325 24.7746C10.6533 23.8042 11.913 21.7262 11.8371 19.4068C11.7724 17.4293 12.6803 15.6043 14.2747 14.5068L17.7471 12.1166C20.0028 14.3408 18.7837 19.1488 15.0242 22.8557Z"/>
<path d="M16.3856 24.1981C15.5063 25.065 14.5669 25.8087 13.6019 26.4222H61C61 24.3253 59.2759 22.6254 57.1492 22.6254H34.0445C32.9811 22.6254 32.1191 21.7754 32.1191 20.727C32.1191 19.6785 31.2571 18.8285 30.1937 18.8285H20.0032C19.2839 20.6765 18.0621 22.5451 16.3856 24.1981Z"/>
<path d="M31.1564 16.9301H20.5668C20.842 15.5732 20.824 14.2742 20.4924 13.1333H43.6715V15.0317C43.6715 17.1286 45.3955 18.8285 47.5223 18.8285H61V22.6254C59.7672 21.4098 58.0951 20.727 56.3517 20.727H35.0072C34.4755 20.727 34.0445 20.302 34.0445 19.7778C34.0445 18.2051 32.7515 16.9301 31.1564 16.9301Z"/>
<path fill-rule="evenodd" clip-rule="evenodd" d="M9.0144 28.3206C7.74964 28.57 6.53441 28.5752 5.44772 28.3206H5.16362V49.2032C5.16362 51.3001 6.88767 53 9.0144 53H17.6787V28.3206H9.0144ZM8.05171 30.219C7.52002 30.219 7.08901 30.644 7.08901 31.1682C7.08901 31.6925 7.52002 32.1174 8.05171 32.1174H9.9771C10.5088 32.1174 10.9398 31.6925 10.9398 31.1682C10.9398 30.644 10.5088 30.219 9.9771 30.219H8.05171ZM7.08901 34.9651C7.08901 34.4408 7.52002 34.0159 8.05171 34.0159H10.9398C11.4715 34.0159 11.9025 34.4408 11.9025 34.9651C11.9025 35.4893 11.4715 35.9143 10.9398 35.9143H8.05171C7.52002 35.9143 7.08901 35.4893 7.08901 34.9651ZM13.8279 30.219C13.2962 30.219 12.8652 30.644 12.8652 31.1682C12.8652 31.6925 13.2962 32.1174 13.8279 32.1174H14.7906C15.3223 32.1174 15.7533 31.6925 15.7533 31.1682C15.7533 30.644 15.3223 30.219 14.7906 30.219H13.8279ZM13.8279 34.9651C13.8279 34.4408 14.2589 34.0159 14.7906 34.0159C15.3223 34.0159 15.7533 34.4408 15.7533 34.9651C15.7533 35.4893 15.3223 35.9143 14.7906 35.9143C14.2589 35.9143 13.8279 35.4893 13.8279 34.9651Z"/>
<path d="M45.5969 15.0317V13.1333H49.4476V16.9301H47.5223C46.4589 16.9301 45.5969 16.0802 45.5969 15.0317Z"/>
<path d="M55.2238 16.9301H51.373V13.1333H55.2238V16.9301Z"/>
<path d="M61 15.0317V16.9301H57.1492V13.1333H59.0746C60.138 13.1333 61 13.9833 61 15.0317Z"/>
<path d="M24.7307 49.7711C24.7307 49.9287 24.5905 50.0564 24.4175 50.0564C24.2446 50.0564 24.1044 49.9287 24.1044 49.7711C24.1044 49.6135 24.2446 49.4858 24.4175 49.4858C24.5905 49.4858 24.7307 49.6135 24.7307 49.7711Z"/>
<path d="M24.4175 49.1054C24.5905 49.1054 24.7307 48.9777 24.7307 48.8201V47.1083C24.7307 46.9508 24.5905 46.823 24.4175 46.823C24.2446 46.823 24.1044 46.9508 24.1044 47.1083V48.8201C24.1044 48.9777 24.2446 49.1054 24.4175 49.1054Z"/>
<path d="M24.0565 31.5242C24.0565 31.3276 24.2182 31.1682 24.4175 31.1682C24.6169 31.1682 24.7786 31.3276 24.7786 31.5242C24.7786 31.7208 24.6169 31.8801 24.4175 31.8801C24.2182 31.8801 24.0565 31.7208 24.0565 31.5242Z"/>
<path d="M24.4175 32.3547C24.2182 32.3547 24.0565 32.5141 24.0565 32.7107V34.8464C24.0565 35.043 24.2182 35.2024 24.4175 35.2024C24.6169 35.2024 24.7786 35.043 24.7786 34.8464V32.7107C24.7786 32.5141 24.6169 32.3547 24.4175 32.3547Z"/>
<path fill-rule="evenodd" clip-rule="evenodd" d="M19.6041 28.3206H61V51.1016C61 52.1501 60.138 53 59.0746 53H19.6041V28.3206ZM22.1566 50.627C21.6758 50.627 21.3743 50.1537 21.6129 49.7733L23.8738 46.1684C24.1142 45.7851 24.7209 45.7851 24.9613 46.1684L27.2222 49.7733C27.4608 50.1537 27.1593 50.627 26.6784 50.627H22.1566ZM25.4175 39.302C25.557 39.4819 25.4214 39.7315 25.2086 39.7315H23.6265C23.4136 39.7315 23.2781 39.4819 23.4176 39.302C23.6771 38.9675 24.0294 38.7619 24.4175 38.7619C24.8056 38.7619 25.158 38.9675 25.4175 39.302ZM24.8761 42.5405C24.7155 42.6126 24.5619 42.4604 24.5619 42.2667V40.3779C24.5619 40.1994 24.6913 40.0547 24.8508 40.0547H25.5634C25.6915 40.0547 25.8064 40.1488 25.8291 40.2898C25.8504 40.4224 25.8616 40.56 25.8616 40.7011C25.8616 41.5568 25.4488 42.2831 24.8761 42.5405ZM23.9843 40.0547C24.1438 40.0547 24.2731 40.1994 24.2731 40.3779V42.2667C24.2731 42.4604 24.1196 42.6126 23.959 42.5405C23.3862 42.2831 22.9735 41.5568 22.9735 40.7011C22.9735 40.56 22.9847 40.4224 23.006 40.2898C23.0287 40.1488 23.1436 40.0547 23.2717 40.0547H23.9843ZM22.6847 40.7011C22.6847 40.8796 21.9778 41.0243 21.8183 41.0243C21.6588 41.0243 21.5295 40.8796 21.5295 40.7011C21.5295 40.5226 21.6588 40.3779 21.8183 40.3779C21.9778 40.3779 22.6847 40.5226 22.6847 40.7011ZM26.1504 40.7011C26.1504 40.5226 26.8573 40.3779 27.0168 40.3779C27.1763 40.3779 27.3056 40.5226 27.3056 40.7011C27.3056 40.8796 27.1763 41.0243 27.0168 41.0243C26.8573 41.0243 26.1504 40.8796 26.1504 40.7011ZM22.9168 39.7315C22.8371 39.8861 22.1602 39.6158 22.0221 39.5266C21.884 39.4373 21.8366 39.2397 21.9164 39.0851C21.9961 38.9305 22.1728 38.8775 22.3109 38.9668C22.449 39.056 22.9966 39.5769 22.9168 39.7315ZM25.9182 41.6707C25.998 41.5161 26.6749 41.7863 26.813 41.8756C26.9511 41.9648 26.9985 42.1625 26.9187 42.3171C26.839 42.4717 26.6623 42.5246 26.5242 42.4354C26.386 42.3461 25.8385 41.8253 25.9182 41.6707ZM22.9168 41.6707C22.9966 41.8253 22.449 42.3461 22.3109 42.4354C22.1728 42.5246 21.9961 42.4717 21.9164 42.3171C21.8366 42.1625 21.884 41.9648 22.0221 41.8756C22.1602 41.7863 22.8371 41.5161 22.9168 41.6707ZM25.9182 39.7315C25.8385 39.5769 26.386 39.056 26.5242 38.9668C26.6623 38.8775 26.839 38.9305 26.9187 39.0851C26.9985 39.2397 26.9511 39.4373 26.813 39.5266C26.6749 39.6158 25.998 39.8861 25.9182 39.7315ZM27.3056 33.0667C27.3056 34.6393 26.0126 35.9143 24.4175 35.9143C22.8225 35.9143 21.5295 34.6393 21.5295 33.0667C21.5295 31.494 22.8225 30.219 24.4175 30.219C26.0126 30.219 27.3056 31.494 27.3056 33.0667ZM30.1937 30.219C29.662 30.219 29.231 30.644 29.231 31.1682V50.1524C29.231 50.6766 29.662 51.1016 30.1937 51.1016C30.7254 51.1016 31.1564 50.6766 31.1564 50.1524V31.1682C31.1564 30.644 30.7254 30.219 30.1937 30.219ZM57.1492 31.1682C57.1492 30.644 57.5802 30.219 58.1119 30.219C58.6436 30.219 59.0746 30.644 59.0746 31.1682V50.1524C59.0746 50.6766 58.6436 51.1016 58.1119 51.1016C57.5802 51.1016 57.1492 50.6766 57.1492 50.1524V31.1682ZM48.4849 31.1682H33.0818V34.9651H48.4849V31.1682ZM33.0818 38.7619H52.3357V40.6603H33.0818V38.7619ZM44.6342 42.5587H33.0818V44.4571H44.6342V42.5587ZM33.0818 47.3048H50.4103V49.2032H33.0818V47.3048ZM54.2611 47.3048H52.3357V49.2032H54.2611V47.3048Z"/>
</svg>
